<?xml version="1.0" encoding="UTF-8" standalone="no"?>
<!-- Created with Inkscape (http://www.inkscape.org/) -->
<svg
   xmlns:dc="http://purl.org/dc/elements/1.1/"
   xmlns:cc="http://web.resource.org/cc/"
   xmlns:rdf="http://www.w3.org/1999/02/22-rdf-syntax-ns#"
   xmlns:svg="http://www.w3.org/2000/svg"
   xmlns="http://www.w3.org/2000/svg"
   xmlns:sodipodi="http://inkscape.sourceforge.net/DTD/sodipodi-0.dtd"
   xmlns:inkscape="http://www.inkscape.org/namespaces/inkscape"
   id="svg1337"
   sodipodi:version="0.32"
   inkscape:version="0.43"
   width="612pt"
   height="792pt"
   sodipodi:docbase="C:\foo\wikipedia\transfer"
   sodipodi:docname="western_border.svg"
   version="1.0">
  <metadata
     id="metadata1342">
    <rdf:RDF>
      <cc:Work
         rdf:about="">
        <dc:format>image/svg+xml</dc:format>
        <dc:type
           rdf:resource="http://purl.org/dc/dcmitype/StillImage" />
        <cc:license
           rdf:resource="http://web.resource.org/cc/PublicDomain" />
      </cc:Work>
      <cc:License
         rdf:about="http://web.resource.org/cc/PublicDomain">
        <cc:permits
           rdf:resource="http://web.resource.org/cc/Reproduction" />
        <cc:permits
           rdf:resource="http://web.resource.org/cc/Distribution" />
        <cc:permits
           rdf:resource="http://web.resource.org/cc/DerivativeWorks" />
      </cc:License>
    </rdf:RDF>
  </metadata>
  <defs
     id="defs1340" />
  <sodipodi:namedview
     inkscape:window-height="721"
     inkscape:window-width="1024"
     inkscape:pageshadow="2"
     inkscape:pageopacity="0.0"
     borderopacity="1.0"
     bordercolor="#666666"
     pagecolor="#ffffff"
     id="base"
     inkscape:zoom="0.35824168"
     inkscape:cx="372.04724"
     inkscape:cy="526.18109"
     inkscape:window-x="-4"
     inkscape:window-y="-4"
     inkscape:current-layer="svg1337" />
  <path
     style="fill:#000000"
     d="M 402.59862,987.24615 C 400.18588,986.5086 398.61143,986.47034 395.08572,987.06379 C 391.34054,987.69413 389.96813,987.6276 386.52732,986.64888 C 384.27345,986.00775 381.96835,985.51648 381.40488,985.55719 C 380.84142,985.59783 378.21052,985.79493 375.55845,985.99519 C 371.8101,986.27816 369.82686,986.05284 366.65102,984.98293 C 363.28516,983.8491 362.02924,983.72732 359.52064,984.29188 C 356.23019,985.03237 353.55039,984.73992 348.39768,983.07793 C 346.58429,982.49302 342.40752,981.97026 339.11598,981.91616 C 333.62597,981.82601 332.83359,981.63272 329.52796,979.57726 C 327.05781,978.04128 325.47977,977.47775 324.51038,977.78544 C 320.14968,979.16945 310.13453,977.12266 306.16184,974.03554 C 305.0523,973.17333 302.90355,972.68602 299.08589,972.43093 C 293.94019,972.08704 287.79111,970.08594 286.76165,968.42027 C 286.55645,968.0882 284.79313,967.81322 282.84316,967.80919 C 280.8932,967.8051 277.87071,967.36867 276.12653,966.83935 C 273.22792,965.95959 267.48674,962.82411 266.66244,961.67055 C 266.47462,961.40773 263.70851,961.0105 260.51553,960.78791 C 253.95632,960.33058 251.80059,959.45731 247.55442,955.53722 C 244.97155,953.15276 244.16183,952.79078 241.41076,952.79078 C 236.22991,952.79078 230.19078,950.36083 226.70264,946.87266 C 225.02416,945.19421 223.41656,943.95889 223.1302,944.12758 C 222.84382,944.29636 220.9936,944.62616 219.01856,944.86064 C 217.04352,945.09517 214.27742,945.44576 212.87164,945.63979 C 208.39189,946.25811 190.67201,949.44542 186.06953,950.46075 C 183.62783,950.99936 180.86172,951.60722 179.92261,951.8115 C 178.9835,952.01585 176.52473,952.68457 174.45868,953.29769 C 172.39264,953.91075 170.39489,954.47476 170.01925,954.55098 C 169.6436,954.62727 166.23206,955.94653 162.43804,957.48272 C 143.98221,964.95552 135.68144,964.05466 111.5316,951.95793 C 96.437764,944.39744 90.072687,942.72964 75.765816,942.58641 C 62.815775,942.45686 59.265091,942.0002 54.982226,939.91367 C 51.947391,938.4352 50.754317,937.29905 48.422647,933.66704 C 45.081734,928.46299 41.261456,917.8659 40.769189,912.43708 C 40.39483,908.30862 41.301854,905.66442 43.09238,905.66442 C 44.274594,905.66442 44.19218,904.90431 42.314817,898.49301 C 41.507037,895.73441 41.380106,891.66515 41.654387,877.3203 C 42.076695,855.23361 42.514174,845.77938 43.235215,843.15744 C 43.774026,841.19822 43.927183,841.12896 47.316202,841.31296 C 50.70417,841.49696 50.837369,841.43685 50.837369,839.72371 C 50.837369,838.61494 50.000045,837.12568 48.617835,835.77609 L 46.398302,833.6089 L 46.517639,824.04702 C 46.583275,818.78799 47.118665,810.797 47.707395,806.28926 C 48.296125,801.78153 48.635557,797.01766 48.461687,795.70291 C 48.191118,793.65694 48.920806,784.40857 49.595585,781.33148 C 49.884309,780.01481 51.585834,778.67683 53.005735,778.64986 C 53.916162,778.63257 54.096116,778.10545 53.887475,776.06692 C 53.439323,771.68827 53.343287,751.04051 53.764379,749.60104 C 54.858206,745.86179 54.910816,733.38834 53.85989,726.9564 C 52.699671,719.85556 52.188254,689.59413 52.886341,669.34962 C 53.136552,662.0935 52.976578,658.58148 52.287874,656.21112 C 51.450588,653.32937 51.486317,652.44236 52.614954,648.09084 C 53.567062,644.41995 54.344464,642.86379 55.742601,641.83011 C 57.098049,640.82797 57.446533,640.15843 57.026141,639.36402 C 55.785172,637.01897 54.806625,627.47655 54.603041,615.73485 C 54.432613,605.90544 54.646008,602.08981 55.667567,596.70048 C 56.472078,592.45621 56.720936,589.54082 56.339547,588.82819 C 53.832564,584.14385 53.588471,566.73705 55.584242,534.96575 C 56.409937,521.82126 56.474915,521.14846 57.546127,514.65222 C 58.596818,508.28041 61.836012,501.09393 64.745788,498.67904 C 66.362837,497.337 66.13134,496.01424 63.818386,493.37994 C 62.693757,492.09905 61.130165,489.78981 60.343738,488.24829 C 57.601749,482.87354 57.194206,480.319 57.746017,471.9653 C 58.031374,467.64538 58.487372,451.45685 58.759345,435.99079 L 59.253844,407.87066 L 55.406864,403.93055 C 53.079922,401.54726 51.16664,398.83631 50.564643,397.06956 C 50.003028,395.4213 48.489067,393.20014 47.089849,391.97161 C 42.981718,388.36462 39.623174,382.60461 38.948731,378.00935 C 38.868999,377.46609 37.838917,376.02454 36.659663,374.80588 C 33.79503,371.84555 31.677324,366.85775 31.274908,362.12327 C 31.057924,359.57041 30.122545,356.58906 28.534715,353.38941 C 26.433516,349.15527 26.129788,347.90932 26.169326,343.68629 C 26.194275,341.02142 25.919329,338.65854 25.558335,338.43543 C 25.197339,338.21233 24.24652,335.87183 23.445404,333.23433 C 22.368482,329.6888 22.104885,327.564 22.434091,325.08232 C 22.765965,322.58052 22.584673,321.15815 21.722176,319.49683 C 19.345355,314.91865 18.299348,309.96618 18.884999,306.06373 C 19.324681,303.13388 19.174096,301.6546 18.154982,298.89232 C 16.167678,293.50585 15.89401,290.87513 16.954413,287.35168 C 17.838687,284.41344 17.813437,284.02148 16.644073,282.53488 C 13.832245,278.9602 13.150465,269.93349 15.329611,265.13143 C 16.354144,262.87375 16.502699,261.85141 15.954948,260.82795 C 15.55982,260.08964 15.071333,257.42666 14.869417,254.9102 C 14.57685,251.26389 14.779324,249.69773 15.866488,247.19745 C 16.943305,244.72101 17.155385,243.1221 16.873267,239.60744 C 16.513148,235.12122 17.741026,229.65406 19.832747,226.43013 C 20.473372,225.44276 20.548754,224.30927 20.10472,222.34061 C 19.445491,219.41785 19.91653,213.99053 20.881166,213.39435 C 21.204347,213.19462 21.470661,212.51148 21.472976,211.87627 C 21.47529,211.24106 21.932376,209.84859 22.488723,208.78189 C 23.25739,207.30811 23.321084,206.50764 22.754003,205.44805 C 21.430061,202.97424 22.343824,195.43257 24.514904,190.91462 C 26.068185,187.68228 26.515458,185.73465 26.632369,181.69424 C 26.784829,176.42533 27.738287,173.39187 30.733022,168.64791 C 31.885111,166.82289 32.401232,165.01093 32.411619,162.75482 C 32.426742,159.47022 34.001278,155.14414 36.415787,151.75328 C 37.136049,150.74176 37.909843,148.84318 38.13533,147.5342 C 39.404107,140.16878 41.781938,135.74451 46.340374,132.26762 C 47.676625,131.24841 48.724356,130.19647 48.668664,129.92997 C 48.612973,129.66349 48.977987,127.91795 49.479806,126.051 C 50.217106,123.30798 51.319342,121.7422 55.223332,117.89205 C 60.717766,112.4734 60.437431,113.68191 59.514338,99.393861 C 58.862316,89.301541 57.772597,81.802136 56.2393,76.855166 C 54.104876,69.968744 52.90703,64.052683 52.896437,60.345043 C 52.884612,56.206517 54.200123,54.301345 60.305434,49.615063 C 70.286308,41.953998 100.57721,23.585836 106.36443,21.685262 C 111.76151,19.912807 128.03609,19.496422 137.24512,20.895179 C 155.06603,23.601994 165.00486,25.604497 176.54657,28.813738 L 181.70793,30.248882 L 185.31744,27.516942 C 189.46696,24.376296 193.317,23.012926 197.6258,23.158335 C 199.78856,23.231322 201.04996,22.879487 202.07375,21.917684 C 204.40247,19.729961 209.86757,17.655747 214.33618,17.263615 C 216.86846,17.041402 219.83411,16.211755 221.87229,15.155377 C 224.74751,13.665166 226.0733,13.422713 231.04986,13.477039 C 234.24913,13.511965 238.69478,13.167649 240.92907,12.711894 C 243.47137,12.19331 246.42131,12.077288 248.81281,12.401821 C 251.61473,12.78205 253.51202,12.633269 255.92469,11.844127 C 258.33965,11.054236 260.58599,10.87861 264.36699,11.184083 C 268.06995,11.483252 270.02952,11.339015 271.33483,10.671205 C 275.02695,8.7822684 283.20818,8.210915 286.83253,9.5888896 C 287.9912,10.029417 289.23218,9.8905875 291.05688,9.1163049 C 294.27904,7.7490286 302.42878,7.5868995 305.43067,8.8303573 C 307.2569,9.5868282 308.21338,9.5980957 310.7324,8.8928098 C 314.70472,7.7806328 322.719,8.3265945 325.07427,9.8698298 C 326.5692,10.849347 327.21855,10.903016 329.29268,10.218491 C 332.74372,9.0795473 339.53601,9.7662384 342.55821,11.559613 C 344.56906,12.752858 345.37837,12.896329 346.8794,12.325639 C 347.89523,11.939425 350.85966,11.590959 353.46704,11.551271 C 357.39949,11.491411 358.85594,11.807065 362.00963,13.402687 C 364.18854,14.505118 366.69339,15.259069 367.87735,15.168854 C 371.34775,14.904419 378.02245,16.414385 380.63699,18.055365 C 382.26186,19.075191 384.68662,19.75378 387.6942,20.030371 C 392.03477,20.429552 395.92561,21.891821 399.84563,24.597156 C 400.78475,25.245269 403.37289,25.982359 405.59708,26.235134 C 410.69876,26.814935 415.21511,28.79152 418.29612,31.792875 C 419.65553,33.117142 422.40374,34.718462 424.63383,35.485725 C 429.68582,37.223866 433.46335,39.938343 435.67642,43.420771 C 437.07378,45.619632 438.07385,46.356286 440.5668,47.02305 C 444.06307,47.95816 448.90532,51.036735 450.93158,53.612713 C 452.23104,55.264698 452.48155,55.304843 461.43414,55.295699 C 469.18693,55.28778 471.07543,55.499516 473.64379,56.664626 C 477.53155,58.428267 480.78098,58.383722 491.65915,56.417659 C 498.53142,55.175602 503.22597,54.798309 512.83187,54.716042 C 525.46803,54.607824 529.81551,54.397593 542.93219,53.260484 C 547.06428,52.902265 552.44284,52.439727 554.88453,52.23262 C 561.80775,51.645386 581.77814,49.010414 588.35108,47.816914 C 590.41712,47.441766 595.13447,46.670701 598.83406,46.103438 C 602.53364,45.536174 606.06812,44.81057 606.68845,44.490981 C 607.30878,44.171393 609.0457,43.693164 610.54828,43.428249 C 612.05086,43.163334 615.89268,42.210247 619.08566,41.310278 C 627.76088,38.865092 633.40359,38.171689 644.35632,38.204896 C 653.37311,38.232233 657.13741,38.421124 665.18754,39.250198 C 682.53664,41.036967 685.40606,41.163901 699.33708,40.760867 C 707.60126,40.521781 718.66571,40.131635 723.92474,39.893876 C 740.68274,39.136257 750.40982,41.217605 752.71641,46.054554 C 753.80217,48.331415 753.79527,48.695569 752.59041,52.674809 C 751.71748,55.557983 749.86302,58.849458 746.70896,63.113969 C 741.5457,70.094941 737.9656,75.929344 731.78084,87.44152 C 729.46004,91.761437 727.07701,95.836618 726.48513,96.49748 C 725.74436,97.324671 725.35219,99.346273 725.22645,102.98589 C 724.88113,112.98472 724.24397,122.62594 723.56071,128.19278 C 723.18418,131.26025 722.73804,136.72853 722.56928,140.34449 C 722.40058,143.96046 722.12205,147.14621 721.95041,147.42395 C 721.77871,147.70169 721.43749,150.8391 721.19202,154.39598 C 720.94663,157.95285 720.63771,161.54638 720.50555,162.38158 C 720.19472,164.34659 719.56692,172.82896 719.13786,180.85994 C 718.78401,187.48472 717.90328,192.47281 716.65389,194.92836 C 716.24806,195.72595 714.02985,198.30869 711.72447,200.66776 L 707.53297,204.95696 L 708.79246,207.15617 C 712.77294,214.10646 713.08158,215.43974 713.25942,226.4493 C 713.41037,235.79339 711.87691,254.44213 710.58818,258.93583 C 710.16998,260.39385 710.19539,264.66986 710.65921,270.91811 L 711.38045,280.63335 L 713.7492,283.14497 C 716.58662,286.15351 718.44401,289.67569 719.10166,293.29496 C 719.36782,294.76 720.45815,297.06509 721.52451,298.41739 C 723.83718,301.35022 725.63221,306.41802 725.63221,310.01451 C 725.63221,311.73107 726.08757,313.02881 726.96998,313.82742 C 728.67473,315.37019 730.41383,320.58355 730.725,325.08406 C 730.88947,327.46234 731.50027,329.28305 732.63533,330.77844 C 734.96139,333.84298 736.02576,337.50956 736.13552,342.83639 C 736.19337,345.64414 736.63758,348.03758 737.29155,349.06534 C 739.436,352.43548 740.26522,355.58906 740.32853,360.6155 C 740.3786,364.58941 740.77262,366.53742 742.06012,369.1752 C 743.44031,372.00291 743.73209,373.64718 743.75653,378.73707 C 743.77696,382.99218 744.12022,385.51458 744.87173,386.93296 C 745.46886,388.05989 746.19624,390.05763 746.48816,391.3724 C 747.0534,393.91832 747.09936,400.86749 746.55462,401.41227 C 746.37532,401.5915 747.11234,403.13149 748.19229,404.83443 C 750.22357,408.03747 750.33558,409.67798 749.46429,423.47296 C 749.40494,424.41207 749.8902,426.56349 750.54259,428.2539 C 751.4591,430.6288 751.63579,432.46486 751.32005,436.33213 C 751.0952,439.08476 750.64026,441.82129 750.30895,442.41329 C 749.91595,443.1155 750.13499,444.46219 750.93894,446.28739 C 752.76415,450.43115 753.17907,455.93742 751.99886,460.35445 C 751.08578,463.77202 751.09889,464.26495 752.14428,465.81838 C 753.04719,467.1601 753.32161,469.35465 753.42529,476.06325 C 753.49782,480.75881 753.77143,486.8539 754.03329,489.6079 C 754.34228,492.85809 754.21149,495.85678 753.66052,498.15349 C 752.99044,500.94648 752.98674,502.3375 753.64269,504.75706 C 754.09975,506.44295 754.44958,509.20537 754.42,510.89577 C 754.36099,514.27452 753.09111,520.39409 752.21845,521.50503 C 751.91349,521.89327 751.94095,522.659 752.27937,523.20664 C 753.50807,525.19468 753.6668,531.03323 752.61315,535.48344 C 752.03507,537.92513 751.49059,543.45736 751.40323,547.77727 C 751.31588,552.09719 750.95614,556.07983 750.60393,556.62758 C 749.95366,557.6388 749.45903,567.92155 749.54878,578.56149 C 749.57596,581.78178 749.24853,585.77727 748.82112,587.44038 C 748.39377,589.10347 747.99579,593.84499 747.93678,597.9771 C 747.83986,604.76085 747.65115,605.80599 745.99264,608.74599 C 744.9461,610.60132 744.28387,612.65799 744.45332,613.52692 C 745.458,618.67876 744.57189,623.74537 741.88814,628.19508 C 740.90231,629.82954 740.50728,631.88909 740.38147,636.04948 C 740.24959,640.41194 739.84744,642.38427 738.60494,644.76195 C 737.30514,647.24922 736.98844,648.94267 736.94445,653.64084 C 736.89835,658.56268 736.60891,659.9828 735.0426,662.97153 C 733.50068,665.91381 733.26095,667.0524 733.59308,669.85643 C 734.10758,674.20103 732.909,679.69231 730.75383,682.86393 C 729.26224,685.05895 729.04717,686.11205 729.04717,691.21947 C 729.04717,695.77508 728.73859,697.65993 727.64738,699.76907 C 726.82007,701.36816 726.0946,704.42993 725.87352,707.25561 C 725.24107,715.3403 725.57887,741.64972 726.42196,749.9652 C 727.3539,759.15675 727.00441,761.22362 724.25277,762.79443 C 722.85893,763.59018 722.35468,764.30985 722.61402,765.1332 C 722.82,765.78737 723.12646,767.17043 723.29488,768.20665 C 723.46338,769.24289 723.97842,771.62749 724.43944,773.50571 C 725.37425,777.31427 725.49507,805.82114 724.61647,815.26663 C 724.24397,819.27135 724.40461,822.71417 725.19019,827.56046 C 727.32269,840.71691 728.40755,849.40408 728.71762,855.8061 C 729.54582,872.90586 729.93082,876.79522 731.24415,881.32741 C 732.03327,884.05062 732.68847,888.39343 732.72972,891.1745 C 732.77036,893.91096 733.13432,896.36973 733.53852,896.63841 C 734.0106,896.95233 734.25654,900.66889 734.22622,907.0304 C 734.20026,912.47725 734.43098,920.46824 734.739,924.78815 C 735.26232,932.12771 735.20488,932.7911 733.86239,934.90871 C 731.90152,938.00178 727.82024,939.64266 720.11584,940.43568 C 716.57603,940.80005 710.1454,941.44883 705.82549,941.8774 C 701.50557,942.30598 696.58803,942.98358 694.89763,943.38326 C 691.51055,944.18407 683.86062,947.44391 682.46615,948.68067 C 681.97839,949.11328 678.74454,951.42841 675.2798,953.8255 C 666.28384,960.04933 660.22856,961.98554 649.82024,961.96635 C 641.58556,961.95111 638.80286,961.46448 627.62304,958.0845 C 609.48708,952.60152 590.63584,948.69638 567.51986,945.63386 C 563.01212,945.03665 558.24826,944.39395 556.9335,944.20571 C 555.61875,944.01741 551.31591,943.40668 547.37163,942.84841 L 540.20023,941.83349 L 538.17777,944.3359 C 536.0894,946.91985 529.0909,950.7403 526.44403,950.74126 C 525.63974,950.74153 523.50348,951.96333 521.69681,953.45628 C 518.40396,956.17732 513.65761,958.25471 510.73351,958.25471 C 509.87427,958.25471 508.18597,959.21785 506.98173,960.39499 C 504.08642,963.2253 498.06762,965.92045 493.78886,966.30272 C 491.43382,966.51308 489.80102,967.11254 488.63444,968.19502 C 485.73693,970.88361 479.77181,973.2665 475.92046,973.2738 C 473.54625,973.27838 471.90497,973.69097 470.79803,974.56158 C 468.75701,976.16675 463.44504,977.99491 459.332,978.50756 C 457.60521,978.72284 455.06125,979.62268 453.67878,980.50736 C 450.07632,982.81246 445.52585,983.77915 440.4908,983.30899 C 437.13288,982.99542 435.28698,983.21186 432.26712,984.2733 C 429.64013,985.19657 426.89896,985.60151 423.84204,985.51785 C 420.83308,985.43547 418.39309,985.78797 416.57891,986.56712 C 413.00961,988.10003 406.43605,988.41933 402.59862,987.24615 z M 412.47645,983.58089 C 413.73439,983.08975 413.68246,982.96872 411.79345,981.98904 C 409.30376,980.69771 404.90104,975.37939 401.47904,969.52958 C 398.37061,964.21585 396.20402,963.33649 391.28435,965.39209 L 388.91387,966.38249 L 390.14431,969.51497 C 391.66753,973.39278 395.9658,978.9123 399.22374,981.17416 C 402.67769,983.57207 409.38076,984.78937 412.47645,983.58089 z M 393.3203,982.90213 C 393.53216,982.55934 392.33813,980.67694 390.6669,978.71902 C 388.763,976.48857 386.9559,973.3156 385.82769,970.22227 C 384.29798,966.02809 383.67216,965.11603 381.66832,964.16046 C 377.78441,962.30832 371.84302,963.08665 371.84302,965.44748 C 371.84302,966.82616 375.67844,974.58726 377.18561,976.25847 C 379.82264,979.18243 383.51937,981.52413 386.95862,982.44924 C 391.34816,983.62993 392.80634,983.73374 393.3203,982.90213 z M 373.25521,978.2093 C 371.77225,976.03677 369.69201,972.11811 368.63246,969.50117 C 366.09509,963.23425 366.07008,963.20249 362.93354,962.26276 C 359.63735,961.27522 354.44867,962.5837 355.08503,964.242 C 355.28965,964.77521 355.65821,966.02816 355.90407,967.02628 C 356.69172,970.22405 361.52033,977.13871 364.32111,979.0797 C 367.1785,981.05983 370.03336,981.9734 373.72652,982.08944 L 375.95151,982.15937 L 373.25521,978.2093 z M 428.44125,981.05047 L 430.57099,980.62449 L 426.9899,976.72461 C 425.02031,974.57961 422.17943,971.08919 420.67685,968.96809 C 418.85154,966.39137 417.20354,964.86127 415.71101,964.35743 C 413.14113,963.4899 408.4747,964.08628 406.20723,965.57199 L 404.6846,966.56964 L 406.44158,969.41285 C 412.20376,978.73739 419.83153,982.77236 428.44125,981.05047 z M 357.75133,980.25663 C 357.93379,979.96144 356.92282,977.88686 355.50474,975.64644 C 354.08666,973.40603 352.24207,969.7327 351.40567,967.48334 C 350.56925,965.23405 349.53641,962.97376 349.11045,962.46056 C 347.37274,960.36672 342.15335,959.32747 338.96224,960.43993 C 337.1158,961.08358 336.92217,961.39878 337.27849,963.18043 C 337.8634,966.10493 339.40102,969.07109 342.30574,972.87822 C 345.60803,977.20646 347.43795,978.49097 352.03629,979.70874 C 356.49589,980.8897 357.31172,980.96789 357.75133,980.25663 z M 447.18911,978.69572 C 449.34437,978.09722 449.65567,977.80169 448.98371,976.99207 C 448.53657,976.45327 447.82417,976.00946 447.40062,976.00583 C 445.87611,975.99272 440.58621,971.1579 436.88621,966.39602 C 432.79396,961.12934 433.58094,961.43826 427.5381,962.72638 C 426.80405,962.88285 425.61691,963.59747 424.90001,964.31433 C 423.6174,965.59699 423.64022,965.67635 426.32621,969.27838 C 430.33393,974.65297 432.80721,976.73145 436.86104,978.13164 C 441.0417,979.57563 443.53088,979.71154 447.18911,978.69572 z M 340.01564,977.20769 C 339.74591,976.73813 338.51395,974.95096 337.27796,973.23611 C 336.04197,971.52131 334.25997,967.98684 333.31796,965.38171 C 331.13194,959.33629 328.59416,956.88497 324.53514,956.89807 C 320.71207,956.91037 318.56974,957.52847 318.56974,958.61922 C 318.56974,963.00722 326.79057,973.51565 332.41659,976.31926 C 336.14582,978.1776 340.89152,978.73247 340.01564,977.20769 z M 463.94864,973.16596 L 466.24099,972.44363 L 463.60715,971.19764 C 459.76979,969.38233 455.70335,965.96751 452.05767,961.49891 C 450.29547,959.33895 448.63281,957.57171 448.36287,957.57171 C 446.83837,957.57171 441.19107,959.69588 440.1068,960.67714 C 438.87511,961.79177 438.91073,961.92885 441.22876,964.99323 C 447.41332,973.16896 455.12981,975.9447 463.94864,973.16596 z M 321.98469,973.40829 C 321.98469,973.10292 321.07833,971.98472 319.97056,970.92343 C 318.09056,969.12224 314.4718,961.48887 314.4718,959.3244 C 314.4718,957.77593 311.28175,954.4191 308.60144,953.14722 C 306.78716,952.28632 305.30977,952.09754 303.04423,952.43732 L 299.9583,952.90005 L 300.38142,955.98704 C 300.90881,959.8348 304.27182,966.24713 307.3035,969.18556 C 308.56592,970.40913 311.23308,971.97469 313.23053,972.66458 C 316.98135,973.96001 321.98469,974.3851 321.98469,973.40829 z M 481.16567,967.73249 C 484.47257,966.30989 485.55202,965.08461 483.49843,965.08461 C 482.02503,965.08461 477.3239,962.05083 472.88385,958.23476 C 469.69277,955.49207 468.49181,954.89657 465.37096,954.50931 C 461.94292,954.08395 461.43233,954.21098 458.75358,956.1558 C 457.15709,957.31491 455.85088,958.53562 455.85088,958.86844 C 455.85088,959.20126 457.70586,961.19094 459.97306,963.28998 C 466.29562,969.14356 474.08828,970.77706 481.16567,967.73249 z M 300.81198,968.24412 C 300.81198,968.10357 300.01628,966.56499 299.04377,964.82493 C 298.07126,963.08495 296.61137,959.13862 295.79956,956.0554 C 294.50895,951.15358 294.02333,950.24581 291.93311,948.82772 C 289.93553,947.47253 288.89954,947.25097 285.62981,947.4797 C 283.47776,947.63024 281.56657,947.90383 281.38272,948.0877 C 280.89835,948.57208 283.28008,956.08102 284.93251,959.27919 C 286.8624,963.01432 289.72051,965.57137 293.70454,967.12709 C 296.67748,968.28804 300.81198,968.93784 300.81198,968.24412 z M 281.68823,963.00169 C 281.68823,962.6074 281.1782,961.30118 280.55481,960.09898 C 279.93143,958.89685 278.71076,955.33458 277.84222,952.18298 C 275.67287,944.31124 273.13664,941.85227 267.2086,941.87338 C 262.74341,941.88928 262.1408,942.51723 263.17381,946.07793 C 265.80786,955.1574 270.80733,960.96857 277.54849,962.78635 C 281.51204,963.85516 281.68823,963.86438 281.68823,963.00169 z M 389.94227,961.34783 C 393.4949,960.06797 396.93069,960.05875 400.50394,961.31941 C 402.82649,962.13887 403.66815,962.17288 404.8585,961.49529 C 408.93169,959.17653 414.20476,959.1124 419.2306,961.32038 C 420.04011,961.676 421.05196,961.54583 421.96256,960.96884 C 425.76886,958.55692 427.77416,957.94278 431.9462,957.91129 C 434.97104,957.88841 436.94701,957.50177 438.14736,956.69802 C 441.48111,954.46561 446.76453,953.31887 450.27071,954.06667 C 452.71209,954.58738 453.69613,954.5363 454.48285,953.84804 C 457.23878,951.43688 461.58646,949.91115 464.81652,950.2215 C 467.81723,950.50979 468.25713,950.34908 470.33076,948.20633 C 472.99762,945.45061 477.49127,943.31544 480.99614,943.13868 C 482.85488,943.04497 484.22557,942.34573 486.24396,940.46156 C 487.74654,939.0589 490.20531,937.27726 491.70789,936.50233 C 493.6768,935.48693 494.04823,935.08492 493.03774,935.0632 C 492.26659,935.04661 489.0996,933.80664 485.99999,932.30768 C 478.90187,928.8751 477.70866,928.67342 474.50347,930.3643 C 472.08197,931.64169 471.02325,931.71047 459.26583,931.35402 C 442.76589,930.85373 428.5529,929.88225 412.13947,928.13276 C 395.87193,926.39885 384.02616,926.07586 365.6961,926.86642 C 338.32207,928.04698 333.88878,928.25153 329.83909,928.52118 C 312.28751,929.6897 298.37797,930.06693 292.67922,929.52893 C 291.32615,929.40114 289.99427,929.92971 288.4994,931.18751 C 285.10095,934.04712 282.74014,935.03199 276.76579,936.08236 C 273.72914,936.61625 271.12579,937.17194 270.98059,937.31715 C 270.83539,937.46234 271.72307,937.99801 272.9532,938.50753 C 274.18334,939.01711 276.32654,940.46095 277.71587,941.71615 C 279.96105,943.7445 280.49324,943.93307 282.50182,943.41174 C 287.06962,942.2262 292.19481,943.41031 296.01649,946.53404 C 297.69888,947.90923 299.38929,948.92553 299.77294,948.79261 C 300.15659,948.65971 302.5152,948.55617 305.01428,948.56265 C 309.4968,948.57419 311.37399,949.252 314.7146,952.0651 C 315.6724,952.87164 317.59404,953.13227 322.58344,953.13227 C 328.91955,953.13227 329.30337,953.21922 332.12884,955.29394 C 334.95152,957.36661 335.16787,957.41579 337.38563,956.48917 C 341.65207,954.7065 347.68244,955.68857 351.45095,958.77965 C 352.39658,959.55532 352.97373,959.53272 355.12006,958.63587 C 358.61574,957.1753 362.42648,957.3024 366.40102,959.01228 C 369.1965,960.21481 370.1086,960.32765 371.92273,959.69526 C 375.69288,958.38098 380.76456,958.76251 384.14741,960.61491 C 385.83201,961.53736 387.21031,962.30108 387.21031,962.31207 C 387.21031,962.32307 388.43969,961.88917 389.94227,961.34783 z M 498.14491,960.79494 C 500.18268,959.96129 501.95394,958.95982 502.08101,958.56949 C 502.20808,958.17916 500.99828,957.5084 499.39255,957.07893 C 496.66933,956.35059 488.78897,951.00912 486.67258,948.45714 C 484.81737,946.22006 477.93986,947.24557 474.50091,950.27197 C 473.15859,951.45334 473.10251,951.74279 473.96187,953.05434 C 475.43885,955.30848 481.39897,959.59466 485.02926,961.0133 C 489.37008,962.70972 493.63825,962.63861 498.14491,960.79494 z M 261.9592,954.47654 C 261.17642,953.14982 259.78167,949.46256 258.85976,946.28255 C 257.93786,943.10262 257.02091,940.23761 256.82209,939.91592 C 256.50655,939.40532 253.539,939.67777 247.53871,940.76816 C 246.59959,940.93877 245.46303,941.10125 245.01301,941.12919 C 244.38815,941.16791 244.37632,941.70065 244.96297,943.38346 C 247.86111,951.6971 253.79444,956.64264 261.09523,956.82998 L 263.38242,956.88872 L 261.9592,954.47654 z M 515.15131,952.65541 C 518.48323,951.07408 518.35425,950.78128 513.5636,949.05154 C 510.05493,947.78473 505.09609,944.27949 502.57826,941.28635 C 501.43309,939.92501 500.549,939.60332 498.05607,939.64102 C 494.8695,939.68917 491.5728,940.9928 490.07572,942.79664 C 488.91881,944.19069 490.31305,946.24288 494.67915,949.57252 C 501.26464,954.59469 508.70457,955.71507 515.15131,952.65541 z M 147.62485,952.73634 C 153.47613,951.35165 162.00658,949.70263 173.7757,947.68091 C 176.96867,947.13247 182.06065,945.7764 185.0912,944.66742 C 189.99128,942.87443 195.58421,941.53919 201.27714,940.80327 C 206.82612,940.08599 214.03442,939.05979 215.48064,938.78127 C 218.88935,938.12485 246.12843,935.37438 256.07609,934.68217 C 263.61121,934.1579 265.33666,933.75111 276.73194,929.81264 C 287.07105,926.23924 289.10607,924.60135 290.90787,918.40335 C 291.49095,916.39768 292.37454,914.20064 292.87143,913.52113 C 293.9341,912.06787 295.34805,912.68412 295.34805,914.60067 C 295.34805,916.87161 297.96137,923.52264 299.25084,924.53339 C 300.03623,925.14904 301.44319,925.37026 303.20245,925.15465 C 304.70503,924.97045 315.30846,924.68236 326.76563,924.51449 C 338.2228,924.34653 348.82623,923.90074 350.32881,923.52373 C 357.12068,921.81968 373.50224,921.22144 388.2348,922.13938 C 398.01165,922.74861 399.64929,922.78487 406.67555,922.5476 C 410.88533,922.40548 414.19953,922.69404 424.4333,924.09403 C 426.875,924.42801 437.87187,924.7799 448.87081,924.87592 C 472.54122,925.0826 470.95783,925.6367 472.55794,916.58694 C 473.12198,913.39689 473.58912,910.40266 473.59604,909.9331 C 473.60297,909.46355 474.07417,909.07937 474.64316,909.07937 C 476.17766,909.07937 478.27795,912.9841 479.16695,917.48958 C 480.72197,925.37075 482.76411,926.76371 499.31291,931.23149 C 509.16443,933.89112 512.14144,934.41299 519.02751,934.68756 C 521.65704,934.7924 525.19151,935.06033 526.88191,935.28299 C 528.57231,935.50565 531.95312,935.84776 534.39481,936.04323 C 536.83651,936.2387 540.06364,936.54604 541.56621,936.72622 C 543.06879,936.9064 546.14225,937.20595 548.39612,937.392 C 550.64999,937.57798 554.79916,938.03032 557.61649,938.39723 C 560.43383,938.76405 564.27565,939.2494 566.15387,939.47574 C 568.03211,939.70201 570.49087,940.01571 571.6178,940.1728 C 584.35921,941.94898 588.8123,942.75012 592.50922,943.93115 C 598.67589,945.9011 604.33807,947.12817 609.86529,947.69218 C 612.4948,947.96053 615.26091,948.31363 616.0122,948.47681 C 617.95807,948.89951 619.85971,949.20139 627.96454,950.37422 C 631.90881,950.94493 637.56996,951.88062 640.54487,952.45351 C 643.51978,953.02634 646.86217,953.6551 647.97241,953.85071 C 652.20714,954.59674 657.31214,951.27426 658.28737,947.13732 C 659.09483,943.71213 662.26076,937.74872 663.99664,936.38329 C 665.27903,935.37458 666.31801,935.14304 668.20681,935.44506 C 670.43711,935.80172 670.80538,935.64648 671.53669,934.04145 C 672.6482,931.60195 672.553,921.18846 671.34283,912.83581 C 670.79858,909.07937 670.34353,904.75092 670.33162,903.21705 C 670.30428,899.69665 669.65641,899.03353 668.16985,901.00431 C 667.20731,902.2804 666.31571,902.56316 663.09957,902.61261 C 659.60594,902.66622 658.99227,902.90185 657.24069,904.86224 C 654.74713,907.65301 654.78263,908.1796 657.50389,908.76696 C 658.72473,909.03047 660.93611,909.86009 662.41806,910.61056 L 665.11251,911.97504 L 663.16013,912.99796 C 661.00121,914.12913 660.13638,913.94903 652.8937,910.85972 C 649.47225,909.40038 647.66827,909.1 641.96585,909.0403 L 635.13594,908.96879 L 637.8679,907.67603 C 639.56751,906.87174 642.12691,906.37644 644.6409,906.3653 C 646.86346,906.35547 648.50379,906.16928 648.28608,905.95155 C 648.06836,905.7338 648.98467,903.25114 650.32233,900.43441 C 652.71925,895.38718 652.73815,895.27892 651.62883,892.95266 C 648.74834,886.91222 651.86189,881.18951 658.15754,880.95278 C 662.53361,880.78832 667.52033,884.6602 669.12238,889.46634 C 669.87447,891.72259 670.48858,892.39404 672.20752,892.83949 C 673.51134,893.1773 675.41925,894.66396 677.06868,896.62729 C 678.56195,898.4047 681.46287,901.8743 683.51518,904.33737 C 686.6287,908.07415 688.02153,909.14357 691.92587,910.79524 C 694.49946,911.88394 699.50414,914.44379 703.04728,916.48381 C 720.73538,926.66754 726.67063,927.54955 729.04757,920.34756 C 730.1207,917.09591 728.32375,909.17581 725.52239,904.81033 C 723.21709,901.21781 719.47376,898.8787 715.9832,898.84954 C 714.99621,898.84127 713.80603,898.37349 713.33838,897.81002 C 712.75661,897.10907 711.20253,896.78554 708.41688,896.78554 C 703.32943,896.78554 703.39431,895.69555 708.60881,893.56229 C 713.42423,891.59235 719.56398,891.51715 724.26624,893.37058 C 726.17225,894.12187 728.07001,894.73657 728.4835,894.73657 C 729.62102,894.73657 728.66927,888.30047 726.23468,879.52903 C 725.07735,875.35943 723.99153,871.15897 723.82175,870.19465 C 723.65195,869.23041 723.08746,866.75102 722.56736,864.68497 C 721.96333,862.28576 721.46003,854.63579 721.1744,843.51226 C 720.92846,833.93332 720.69372,825.32763 720.65267,824.38852 C 720.61169,823.4494 720.81952,820.22228 721.11464,817.21712 C 721.40976,814.21196 721.77495,806.52831 721.92631,800.14234 C 722.1562,790.43875 721.9649,787.24126 720.76167,780.67711 C 719.96982,776.3572 719.0809,772.56031 718.78633,772.23958 C 718.49175,771.91884 717.73834,772.73611 717.11218,774.05572 C 716.48595,775.37532 715.41106,776.9641 714.72341,777.58637 C 713.67264,778.53737 713.58166,779.11047 714.15298,781.17959 C 714.90639,783.90834 714.44073,789.08432 713.0158,793.81894 C 711.98244,797.25268 712.36642,800.01634 714.69917,805.93452 C 716.47235,810.43317 716.43233,810.98803 714.25113,812.15001 C 712.82415,812.91018 712.36976,812.93415 712.14384,812.26119 C 711.98538,811.78925 711.59942,811.56161 711.28613,811.75524 C 710.97285,811.9488 710.17108,811.56653 709.50448,810.90573 C 708.34688,809.75825 708.31717,809.76562 708.8439,811.0702 C 710.34006,814.77577 710.27141,815.067 708.00853,814.61444 C 706.83699,814.38011 705.69469,814.4857 705.4702,814.84905 C 704.61086,816.23941 703.64108,815.37892 701.98121,811.75319 C 701.03532,809.68714 700.1014,807.99674 699.90594,807.99674 C 699.71039,807.99674 699.75718,809.50034 700.00995,811.33807 C 700.32044,813.59569 700.21117,814.83901 699.67303,815.17156 C 698.35138,815.98842 697.80751,814.71866 697.34738,809.74226 C 697.10622,807.13372 696.72927,804.82862 696.50971,804.61983 C 696.29015,804.41111 696.3263,806.4333 696.59001,809.11371 C 696.94845,812.75657 696.8491,814.12331 696.19657,814.52661 C 695.66699,814.8539 695.05282,814.63678 694.63513,813.97462 C 694.02509,813.0075 693.86087,813.0004 693.19391,813.91253 C 692.52827,814.82282 692.10913,814.7981 689.57146,813.69869 C 686.45957,812.35054 686.32096,812.02488 687.4637,808.7468 C 688.65035,805.34271 687.78525,805.56864 685.04899,809.37734 C 683.1435,812.0296 682.18271,812.81346 681.03692,812.6505 C 680.0571,812.5111 679.53034,811.95856 679.53034,811.0702 C 679.53034,810.25048 679.94002,809.759 680.55482,809.84116 C 681.45289,809.96123 683.17216,808.0158 686.65686,802.93626 C 687.19564,802.15089 686.11993,802.93271 684.26639,804.67358 C 679.86862,808.80411 678.38245,809.54166 676.1601,808.69674 C 675.1964,808.33031 674.40791,807.55607 674.40791,806.97614 C 674.40791,806.20826 673.96856,806.03198 672.79099,806.32758 C 671.62672,806.61977 670.6428,806.24104 669.27631,804.97458 C 668.23253,804.00726 667.11607,803.21581 666.79529,803.21581 C 666.47449,803.21581 666.21202,802.72056 666.21202,802.1153 C 666.21202,801.24135 666.67361,801.1014 668.45431,801.43545 C 670.46809,801.81328 671.02638,801.5213 673.93249,798.57085 C 676.42396,796.04133 677.23974,794.66578 677.47859,792.59154 C 678.47703,783.92064 679.13041,782.56797 683.81373,779.47601 C 685.15445,778.59092 685.31547,778.03789 684.99934,775.40443 C 684.47624,771.04673 685.67678,767.43426 688.7066,764.24927 C 691.05758,761.77793 691.30437,761.19309 690.9889,758.84101 C 690.71039,756.76465 691.07694,755.38815 692.71249,752.36844 C 694.49275,749.08148 694.69468,748.21873 694.12461,746.33511 C 692.69667,741.6168 693.51498,737.43573 696.71936,733.07737 C 698.28492,730.94807 698.29701,730.82063 697.23114,727.68113 C 695.80934,723.49337 696.41732,719.46059 699.00999,715.88144 C 700.96334,713.185 700.98478,713.06349 700.00107,710.27532 C 698.84703,707.00427 698.70209,702.99402 699.64811,700.50589 C 700.00695,699.56192 701.40865,697.56314 702.76295,696.06413 L 705.22527,693.33858 L 704.1594,690.19912 C 703.57319,688.47241 703.09352,686.31245 703.09352,685.39921 C 703.09352,683.23737 705.00732,679.03381 707.00296,676.81236 C 708.54112,675.10017 708.55382,674.97656 707.49498,672.03142 C 705.6057,666.77663 706.40985,662.65311 710.11405,658.60135 C 711.39193,657.20365 711.43659,656.82536 710.63846,654.16191 C 709.19242,649.33649 709.31154,648.21834 711.80158,643.24106 C 713.82952,639.18736 714.18816,637.77494 714.16624,633.92864 C 714.14697,630.56357 714.56517,628.44897 715.78834,625.72643 C 717.85582,621.12448 717.91312,616.74883 716.07813,603.60646 C 712.18106,575.69526 711.96762,573.44764 713.12945,572.56033 C 714.08584,571.82993 714.16467,570.00057 713.79154,557.19303 C 713.27117,539.32972 712.21745,523.24846 711.24569,518.34057 C 710.84403,516.31198 710.36512,513.88386 710.18147,512.94474 C 709.64709,510.2127 707.00057,506.73488 705.82549,507.22052 C 704.61133,507.7223 698.82258,507.62279 695.92212,507.05026 C 693.60053,506.59199 691.48268,504.97018 691.48268,503.65062 C 691.48268,502.72561 695.47277,501.34429 698.16377,501.33771 C 700.61692,501.33172 704.25556,499.5506 705.38025,497.80525 C 706.24819,496.45833 706.46483,490.65771 706.77894,460.35445 C 706.98343,440.6331 707.33954,422.93835 707.57032,421.03278 C 707.94617,417.92976 707.794,417.33519 706.1122,415.33651 C 705.07938,414.10913 702.64159,411.92822 700.69479,410.49005 C 697.76899,408.32863 696.99803,407.30299 696.24874,404.57547 C 694.36089,397.70342 691.35575,395.59222 685.61065,397.10188 C 681.64398,398.14422 678.50585,397.41555 678.50585,395.45215 C 678.50585,392.84215 681.03019,392.05555 689.41493,392.05283 C 698.79812,392.0498 700.65771,391.25127 703.17104,386.14595 C 704.67348,383.09406 704.83719,381.71285 705.2638,368.49221 C 705.51841,360.60366 706.01535,352.30532 706.36819,350.05146 C 706.85871,346.91837 706.78119,345.31028 706.03892,343.22155 C 705.26741,341.05062 705.05568,335.01955 705.00774,313.85295 C 704.97455,299.2028 705.14953,286.44795 705.39663,285.50883 C 706.96396,279.55102 707.80288,269.55219 707.37362,261.94565 C 706.77586,251.35296 706.94572,244.22354 707.96754,237.01649 C 708.42023,233.82351 708.81493,228.09105 708.84478,224.27771 C 708.89709,217.57601 708.82811,217.2451 706.77888,214.37434 C 703.81763,210.22598 701.13949,209.01706 694.89763,209.01112 C 688.75672,209.00528 684.91644,208.05076 683.97781,206.29693 C 683.01309,204.49432 683.05558,204.38757 685.17344,203.29239 C 686.79271,202.45503 687.44611,202.45109 689.78363,203.26456 C 695.98193,205.4216 700.04363,203.50088 702.04854,197.46464 C 703.01156,194.56536 703.7399,193.75867 707.88061,191.00529 C 710.483,189.27481 713.0492,187.16343 713.58324,186.31333 C 714.4339,184.95931 715.67653,168.06275 715.55543,159.49704 C 715.53953,158.37011 715.82721,154.38994 716.19472,150.65223 C 716.5623,146.91451 716.99307,141.10821 717.15199,137.74932 C 717.311,134.39043 717.73322,129.76492 718.09029,127.47039 C 718.71865,123.43268 718.93092,119.36795 719.07509,108.61424 L 719.1438,103.4918 L 714.83201,103.28735 C 710.89115,103.10048 710.53866,102.95949 710.73407,101.64839 C 711.07693,99.348262 714.23877,97.49589 718.4128,97.14974 C 721.52294,96.891826 722.25107,96.584621 722.59865,95.383727 C 722.83011,94.584139 724.22205,91.577914 725.69184,88.703209 C 727.16163,85.828517 728.36418,83.14521 728.36418,82.740305 C 728.36418,82.335402 729.39563,80.384588 730.6563,78.405159 C 731.91696,76.425729 733.68713,73.423138 734.58998,71.732736 C 736.41323,68.318944 737.28253,67.072137 744.97191,56.842038 C 747.90796,52.935776 750.21305,49.658191 750.09435,49.558516 C 749.97558,49.45884 735.43313,49.147872 717.77783,48.867477 C 700.12251,48.58708 682.6038,48.265049 678.84735,48.151849 C 659.59043,47.571551 645.15877,47.071546 637.05487,46.703893 L 628.04596,46.295181 L 626.64602,48.597193 C 625.87606,49.863298 624.4317,53.512164 623.43632,56.705782 C 621.50838,62.891564 620.40775,64.695435 619.067,63.866811 C 618.2844,63.383135 618.33959,61.942857 619.41115,54.885865 C 619.53472,54.072095 619.18726,52.765875 618.63902,51.983153 C 617.40631,50.223209 614.77478,50.161593 602.35239,51.601811 C 589.30136,53.114911 588.48051,53.201217 582.88716,53.648421 C 576.8174,54.133715 567.34447,55.993541 560.68996,58.00641 C 551.1719,60.885451 542.12538,61.562454 513.90509,61.507595 C 499.44276,61.47948 486.81209,61.462267 485.83693,61.469344 C 482.82073,61.49123 479.65286,64.204032 478.63719,67.634791 C 478.13676,69.325193 477.72265,71.41504 477.71694,72.278896 C 477.6946,75.664896 474.56483,79.29638 473.35546,77.339563 C 473.17187,77.04251 472.54326,74.058647 471.95854,70.708753 C 470.38423,61.689306 471.37394,62.136652 453.08621,62.178435 C 444.65218,62.197704 436.52224,62.226907 435.01966,62.243329 C 433.51707,62.259751 428.2922,62.23546 423.40882,62.189348 C 418.52543,62.143237 410.68812,62.441891 405.99255,62.853024 C 393.84554,63.916589 373.67787,63.53415 366.06141,62.09581 C 357.75227,60.526661 336.01373,57.874028 319.25273,56.384007 C 309.99336,55.560866 292.86142,53.923005 290.56712,53.641583 C 280.2188,52.372242 279.81189,52.393602 278.58193,54.270742 C 277.94461,55.243428 276.88794,58.096446 276.23378,60.610781 C 275.57962,63.125116 274.77203,65.269241 274.43913,65.375505 C 273.86399,65.559089 273.11376,64.11132 270.42031,57.620085 C 268.44433,52.857952 265.77516,50.909828 257.10057,47.898553 C 245.15851,43.753007 240.92542,42.987568 231.82992,43.329028 C 227.51,43.491205 222.28511,44.119299 220.21906,44.724794 C 218.15301,45.330289 215.3666,45.754027 214.02702,45.666434 C 212.39455,45.55969 210.87346,46.018414 209.41408,47.057577 C 206.60104,49.060643 203.55592,49.970135 199.75369,49.942873 C 197.09639,49.92382 196.45538,50.223341 194.76522,52.273806 C 192.42327,55.114982 187.56929,57.38993 183.8491,57.38993 C 181.47844,57.38993 180.77073,57.785928 178.4698,60.399931 C 175.65915,63.592998 171.32445,65.585819 167.18965,65.585819 C 165.55184,65.585819 164.73063,66.001335 164.15251,67.122548 C 162.07769,71.146467 156.69334,74.464698 152.23874,74.464698 C 150.32945,74.464698 149.63212,74.975586 147.51047,77.928773 C 144.88641,81.581277 142.48453,82.978431 137.10021,83.984332 C 135.38988,84.303856 133.75278,84.981929 133.46221,85.49116 C 131.75541,88.482354 128.70127,91.587642 126.43982,92.631144 C 124.34438,93.598045 123.86141,94.171807 123.95099,95.587875 C 124.18148,99.232067 123.85807,100.21968 121.71718,102.40944 C 119.67562,104.49759 119.29398,104.62706 116.424,104.20506 C 109.44743,103.17922 106.14864,104.10984 103.21575,107.93124 C 100.98839,110.83337 98.558068,112.52243 94.474084,114.00662 C 93.222824,114.46135 92.559237,115.31771 92.246523,116.88129 C 91.656003,119.8339 86.776724,124.45817 83.084647,125.56436 C 80.942881,126.20604 80.205971,126.77816 80.205971,127.79931 C 80.205971,131.07828 76.453572,135.45929 72.100821,137.26226 C 70.923979,137.74972 69.96321,138.34178 69.965776,138.57794 C 69.968343,138.81409 71.104306,139.77569 72.490141,140.71479 C 74.882865,142.33623 75.430903,142.41325 83.365595,142.24323 C 91.196411,142.07543 91.83375,142.16125 93.510534,143.60921 C 95.113582,144.99349 95.199529,145.2906 94.336693,146.465 C 93.28051,147.90256 90.816512,148.11997 85.598572,147.23603 C 82.725708,146.74936 82.265863,146.87256 80.280383,148.66073 C 78.784521,150.00795 77.802988,151.7892 77.131849,154.37461 C 76.48592,156.8629 75.514418,158.67093 74.254149,159.73022 C 69.631672,163.6155 66.493577,166.98163 66.125035,168.45001 C 65.905858,169.32329 66.058594,172.42997 66.464447,175.35376 C 66.8703,178.27756 67.528305,190.04381 67.92668,201.50097 C 68.325055,212.95814 68.868937,228.32544 69.135306,235.65051 L 69.619614,248.96883 L 74.229802,249.17078 C 77.629108,249.31969 78.839989,249.62379 78.839989,250.32859 C 78.839989,250.98437 79.858467,251.3498 82.084195,251.49262 C 84.954395,251.67679 85.328401,251.882 85.328401,253.27262 C 85.328401,254.54619 84.581455,255.14803 81.391935,256.44435 C 71.569419,260.43651 72.027478,258.84212 71.664927,290.30187 C 71.38034,314.99639 71.299525,316.33659 69.987293,318.12302 C 68.996375,319.47203 68.419496,321.83986 67.936083,326.54236 C 67.191481,333.78562 66.973836,346.86799 67.544975,350.05146 C 67.747157,351.17839 68.094361,353.17543 68.31654,354.48933 C 68.538719,355.80323 69.076475,357.10475 69.511553,357.38159 C 69.946632,357.65842 73.837082,357.89417 78.156998,357.90546 C 86.653273,357.92767 89.284795,358.66464 89.638536,361.12094 C 89.987463,363.54374 87.829021,364.09041 78.694006,363.89279 C 66.530104,363.62966 65.462328,364.71312 66.680507,376.08279 C 67.276318,381.64369 69.585324,387.95744 71.023194,387.95744 C 72.211898,387.95744 74.742044,391.57405 74.742044,393.27319 C 74.742044,394.73348 72.686262,395.80264 68.47169,396.53421 C 67.081144,396.77559 65.758118,397.47469 65.510962,398.0987 C 65.047428,399.26897 64.835216,404.14302 64.168288,428.93688 C 63.661435,447.77975 62.605554,466.80431 61.838828,470.90839 C 60.832427,476.29539 61.529677,477.61834 68.011086,482.61954 C 71.343649,485.19103 71.97782,486.05857 72.687495,489.01682 C 74.264181,495.58919 77.20443,497.65583 83.250764,496.44156 C 86.466775,495.79569 87.250145,495.85327 88.766747,496.84698 C 89.769322,497.5039 90.438797,498.50384 90.313543,499.1573 C 89.939845,501.10684 85.882327,501.94837 78.329636,501.64275 C 69.708686,501.2939 67.694926,502.14935 65.269414,507.19077 C 63.40529,511.06536 62.695751,516.25315 62.193818,529.67802 C 61.997192,534.93705 61.633824,540.00825 61.386335,540.94737 C 60.634472,543.80035 60.027367,570.14195 60.52057,578.51185 C 61.195615,589.96771 61.348997,603.48132 60.813805,604.34727 C 60.34736,605.102 60.298442,607.97661 60.386925,629.4319 L 60.434962,641.07997 L 64.344297,643.00738 C 70.014259,645.80285 75.260866,647.49392 78.26392,647.49392 C 81.672871,647.49392 81.591892,648.33547 78.028315,649.94241 C 75.988003,650.86247 73.588743,651.23333 69.661678,651.23569 C 64.574815,651.23876 63.87754,651.06281 60.501716,648.92437 C 57.543048,647.05019 56.73276,646.79134 56.243482,647.56408 C 55.368738,648.94559 55.459611,650.08498 57.409041,662.17822 C 59.561239,675.52932 60.083928,684.06591 59.125964,690.21912 C 58.388288,694.95733 58.517631,696.50492 60.806707,710.32906 C 61.997604,717.52109 61.973725,721.51775 60.700611,728.08682 C 58.019743,741.91965 57.474698,746.10357 57.408528,753.35748 C 57.272685,768.24941 58.661433,774.01187 62.574805,774.79458 C 63.726024,775.02482 69.009191,775.21735 74.315175,775.22255 C 84.965309,775.23278 87.128545,775.54293 86.576894,776.98057 C 86.041996,778.37448 82.183045,779.19686 73.717558,779.721 C 66.845363,780.1465 64.313749,780.35153 62.988094,780.58996 C 61.937924,780.77881 58.968866,784.57029 57.057676,788.1631 C 55.950746,790.2439 54.35696,794.5589 53.515929,797.75188 C 49.900091,811.47945 53.054881,835.42319 59.030953,839.60903 C 60.680798,840.76459 71.854211,841.11893 77.132512,840.18302 C 80.724739,839.54607 82.254943,839.91993 82.254943,841.43467 C 82.254943,842.41005 81.49605,842.7749 78.669241,843.15868 C 76.697105,843.42641 74.468848,843.75383 73.717558,843.8862 C 72.966268,844.01856 71.122193,844.29825 69.619614,844.50765 C 68.117035,844.71705 66.119286,845.01798 65.180174,845.17636 C 64.241062,845.33468 61.168383,845.808 58.351999,846.22817 C 55.535615,846.64828 52.960707,847.26263 52.629982,847.59334 C 51.538471,848.68488 47.420134,865.61698 47.060824,870.4904 C 46.024543,884.54573 46.130329,891.1523 47.461775,895.53075 C 48.185678,897.91131 48.780309,901.01154 48.783179,902.42021 C 48.786049,903.82887 49.013374,904.98143 49.288345,904.98143 C 49.563316,904.98143 52.161845,904.17481 55.062852,903.18898 C 60.503414,901.3402 62.712317,901.40126 62.327941,903.38985 C 62.166435,904.22542 60.559541,904.86716 56.375351,905.7672 C 48.775986,907.40181 47.449799,908.31462 47.323131,911.99786 C 47.036781,920.3242 48.647611,924.67471 52.801605,926.79389 C 58.985612,929.94876 63.158551,927.69838 67.85152,918.67792 C 70.484149,913.61771 74.001706,909.76236 75.986001,909.76236 C 77.427466,909.76236 78.906948,906.49971 79.594874,901.80387 C 80.524893,895.45548 81.402413,893.43915 83.460025,892.92274 C 86.145073,892.24884 85.614512,891.34804 100.21781,921.37321 C 102.50159,926.06876 105.43587,931.25075 106.73844,932.88876 C 108.91518,935.62606 109.30958,935.83984 111.61394,935.53071 C 115.47544,935.0128 117.93015,936.48028 125.12791,943.60974 C 136.47145,954.84562 137.2966,955.18036 147.62485,952.73634 z M 103.82221,911.59311 C 102.70422,910.77557 102.92264,910.55354 106.17322,909.20265 C 108.14415,908.38353 110.15862,907.71339 110.64983,907.71339 C 112.62283,907.71339 112.3301,906.08766 109.91101,903.61025 C 107.6931,901.3389 107.05789,901.04528 105.06295,901.36902 C 101.6572,901.92169 99.001978,900.52826 97.619687,897.46286 C 94.765509,891.13344 100.49596,881.39003 107.88835,880.00322 C 110.70362,879.47507 112.34928,879.98526 114.62085,882.09051 C 116.64065,883.96239 117.02363,887.80489 115.58653,891.77915 C 114.85058,893.81439 114.98271,894.50393 116.90446,898.65754 C 118.0792,901.19656 119.20134,903.79972 119.39812,904.44227 C 119.6811,905.36636 120.51215,905.59461 123.37336,905.5341 C 125.36297,905.49203 128.06654,905.91281 129.3813,906.46918 C 131.7473,907.47038 131.6978,907.48492 124.54453,907.89377 C 118.46271,908.24134 116.59277,908.63864 112.74584,910.40055 C 107.74144,912.69259 105.69915,912.96552 103.82221,911.59311 z M 108.59387,896.45695 C 111.04762,894.58534 113.67251,889.76323 113.67251,887.12709 C 113.67251,884.6087 110.80035,882.15841 108.51938,882.73088 C 104.00749,883.86329 99.903764,888.87371 99.804861,893.37071 C 99.684982,898.82092 103.66311,900.21783 108.59387,896.45695 z M 684.22046,112.18475 C 681.12528,109.67755 680.41735,105.75308 682.26332,101.33505 C 683.25191,98.969041 683.21501,98.751685 681.23837,95.29687 C 680.11062,93.325767 679.12354,90.93524 679.04486,89.984579 C 678.90702,88.319149 678.70853,88.247336 673.60164,88.015413 C 669.70765,87.838585 667.98549,87.458725 667.1104,86.583638 C 665.97761,85.45085 666.21898,85.389804 672.04183,85.336388 C 679.64611,85.266634 681.47011,84.977653 685.33577,83.230202 C 690.30784,80.982601 691.74851,80.712492 693.91612,81.621485 L 695.92212,82.462718 L 692.16567,84.206085 C 690.09962,85.164937 687.69531,86.21513 686.82275,86.539838 C 685.25554,87.123057 685.27078,87.164357 688.07888,89.944681 C 690.6726,92.512717 691.15868,92.727314 693.63061,92.395762 C 699.24726,91.642412 701.90512,95.567373 700.43149,102.43883 C 699.63841,106.13677 696.31153,110.85202 693.32334,112.5133 C 691.08391,113.75831 685.93358,113.57242 684.22046,112.18475 z M 694.55063,107.47759 C 697.4721,104.1347 698.71199,99.716892 697.45304,97.136623 C 696.69848,95.590208 696.14058,95.309155 693.96349,95.378726 C 689.42921,95.52361 683.22783,102.83314 684.23493,106.84574 C 685.43514,111.62776 690.64481,111.94686 694.55063,107.47759 z M 242.07478,948.47298 C 242.07478,948.35209 241.58698,946.82157 240.99078,945.07182 L 239.90677,941.89045 L 237.06357,942.28385 C 235.49982,942.50029 233.6057,942.76222 232.85441,942.86596 C 232.10312,942.96971 230.87373,943.09531 230.12244,943.1451 C 228.91655,943.22508 228.9966,943.43237 230.80543,944.91357 C 233.17178,946.85136 237.48146,948.56094 240.19656,948.63894 C 241.22958,948.66859 242.07478,948.59393 242.07478,948.47298 z M 668.09951,947.34427 C 669.35193,946.64147 689.41323,938.43335 696.9466,935.54144 C 702.96894,933.22965 708.17047,931.79045 712.58935,931.21332 L 716.27975,930.73134 L 701.23476,923.33325 C 687.28945,916.47589 685.90809,915.63082 682.33454,911.77097 C 680.21411,909.48063 677.84908,906.37159 677.07891,904.8619 C 675.39333,901.55793 674.74748,901.81863 675.68466,905.42475 C 676.06062,906.87133 676.50604,908.97692 676.67449,910.10385 C 676.84294,911.23078 677.35006,913.51219 677.80144,915.17369 C 678.9074,919.24459 679.20925,928.2335 678.35324,931.6059 C 677.48429,935.02933 673.36364,939.7809 669.11283,942.26124 C 665.47406,944.38446 664.15384,945.82516 664.65359,947.12749 C 665.05608,948.17636 666.45947,948.26466 668.09951,947.34427 z M 530.12611,944.9611 C 532.09825,944.04296 533.71182,942.99409 533.71182,942.63033 C 533.71182,941.19585 527.73404,939.99282 518.00303,939.46884 C 514.81005,939.29693 510.81455,938.98986 509.12416,938.78646 L 506.05069,938.41662 L 509.22723,941.38463 C 514.88807,946.67398 523.34027,948.12042 530.12611,944.9611 z M 104.49235,942.1827 C 103.76317,941.63119 102.84114,941.1897 102.44338,941.20165 C 102.04562,941.2136 102.31678,941.67463 103.04595,942.22614 C 103.77513,942.77766 104.69716,943.21913 105.09492,943.20718 C 105.49268,943.19523 105.22152,942.73422 104.49235,942.1827 z M 100.97361,939.6432 C 100.70648,939.17365 100.06177,938.29109 99.540912,937.68199 C 99.020056,937.07291 97.715032,933.99944 96.640851,930.85209 C 95.566671,927.70473 93.389733,921.90251 91.803215,917.95825 C 90.216695,914.01397 88.644061,909.82355 88.308467,908.64614 C 87.666777,906.39487 85.266706,902.93246 84.347837,902.93246 C 84.05088,902.93246 83.28298,904.69969 82.641399,906.85965 C 80.606105,913.71169 79.29328,916.12346 74.741176,921.37321 C 70.972668,925.71927 67.260777,930.26773 64.235328,934.24683 C 63.654566,935.01062 63.938067,935.0074 65.894245,934.22791 C 70.446963,932.41381 86.033978,934.8816 96.256252,939.03493 C 100.2608,940.66202 101.65551,940.84186 100.97361,939.6432 z M 720.56073,931.7005 C 720.0532,930.87934 717.43632,930.24409 717.43632,930.94211 C 717.43632,931.55884 718.64044,932.16289 720.03783,932.24717 C 720.52959,932.27681 720.76488,932.0308 720.56073,931.7005 z M 666.16245,898.40088 C 667.77676,896.34863 667.90162,894.95068 666.79923,891.27127 C 665.78547,887.8876 662.301,884.54695 659.27288,884.05562 C 657.38829,883.74977 656.4889,884.01293 654.97842,885.31218 C 653.3687,886.6968 653.14148,887.29115 653.53571,889.08604 C 654.31935,892.65392 657.81566,897.22654 660.94425,898.77516 C 664.54571,900.5579 664.461,900.56391 666.16245,898.40088 z M 707.95785,807.53572 C 707.15267,806.15116 706.95829,806.59428 707.61731,808.31181 C 707.85157,808.92219 708.18706,809.27775 708.36293,809.10189 C 708.5388,808.92608 708.35651,808.22131 707.95785,807.53572 z M 681.71485,803.67389 C 683.43608,802.04769 684.72441,800.38433 684.57781,799.97761 C 684.43121,799.57096 682.52971,800.9015 680.35223,802.93448 C 677.99198,805.13808 676.83583,806.63075 677.48927,806.63075 C 678.09213,806.63075 679.99364,805.30015 681.71485,803.67389 z M 679.15536,797.56125 C 678.98596,797.43067 677.63506,798.72637 676.15338,800.44054 L 673.4594,803.5573 L 676.46139,800.67801 C 678.11249,799.09444 679.32477,797.69191 679.15536,797.56125 z M 691.78337,792.28795 C 692.12496,787.22808 692.04709,786.08114 691.42974,787.07851 C 690.40551,788.73326 689.66799,800.42019 690.64843,799.45936 C 691.03174,799.08372 691.54246,795.85658 691.78337,792.28795 z M 683.501,791.26347 L 683.87938,786.48254 L 682.93198,790.92197 C 681.81141,796.17287 681.65536,798.63546 682.54248,797.06889 C 682.86156,796.50543 683.29289,793.89298 683.501,791.26347 z M 699.92103,788.873 C 700.22961,787.1912 700.16056,786.78626 699.68807,787.50702 C 699.3187,788.07048 699.01176,789.27426 699.00602,790.18209 C 698.99216,792.37422 699.38051,791.8186 699.92103,788.873 z M 684.31127,782.72609 C 684.99119,781.9748 685.3938,781.3601 685.20598,781.3601 C 685.01816,781.3601 684.3082,781.9748 683.62829,782.72609 C 682.94837,783.47738 682.54576,784.09206 682.73358,784.09206 C 682.9214,784.09206 683.63136,783.47738 684.31127,782.72609 z M 707.66416,777.3838 C 710.83501,775.75022 713.66437,772.46121 714.38595,769.56977 C 714.64495,768.5319 714.64515,766.2712 714.38644,764.54597 L 713.91606,761.40912 L 710.04151,761.87643 C 703.75895,762.63414 695.00711,764.73952 693.18953,765.93038 C 690.30247,767.82207 689.18663,770.21403 689.29365,774.28172 C 689.34756,776.33096 689.5963,778.33862 689.84637,778.74329 C 690.14518,779.22678 692.78662,779.37266 697.55105,779.16886 C 703.21216,778.92674 705.42846,778.53552 707.66416,777.3838 z M 699.00009,759.48801 C 700.31239,759.10334 703.69114,758.46659 706.50847,758.07306 C 712.36601,757.25483 713.96584,756.42117 716.00239,753.12595 C 717.53775,750.64171 719.14367,743.62131 718.53779,742.04237 C 718.03005,740.71935 707.46391,745.18762 701.89241,749.08148 C 697.337,752.26517 694.48919,756.45853 695.25146,758.86027 C 695.73986,760.39912 695.83661,760.41531 699.00009,759.48801 z M 701.72754,743.81918 C 702.66665,743.20401 706.62042,741.34592 710.51367,739.69015 C 714.4337,738.02291 717.98436,736.05767 718.47092,735.28589 C 719.62859,733.44946 720.93522,727.05135 720.42441,725.72013 C 719.89858,724.34977 718.52392,724.38583 717.34966,725.80079 C 716.83434,726.42176 713.08219,728.54935 709.01156,730.52885 C 704.94094,732.50837 701.03369,734.64996 700.32871,735.28793 C 698.52246,736.92261 697.41555,740.73287 697.93797,743.51763 C 698.39892,745.97496 698.43238,745.97763 701.72754,743.81918 z M 709.22213,725.65872 C 712.75005,723.83302 714.61769,722.29869 716.75033,719.47411 C 719.79306,715.44398 721.53427,711.88492 721.53427,709.69566 C 721.53427,708.43192 721.20699,708.50002 716.92409,710.6543 C 714.38848,711.92966 711.1147,713.18957 709.649,713.45409 C 706.28998,714.06017 701.97328,717.86758 701.11312,720.98269 C 700.22004,724.21734 701.33544,728.08682 703.16093,728.08682 C 703.91399,728.08682 706.64152,726.99417 709.22213,725.65872 z M 707.19598,709.60865 C 708.50828,709.21238 710.05975,708.78059 710.64378,708.64904 C 715.64068,707.52369 721.67585,702.76624 723.67497,698.37673 C 724.35932,696.87415 724.926,694.20652 724.9342,692.44864 L 724.94922,689.25251 L 722.04651,690.84949 C 720.45002,691.72788 717.23477,692.97277 714.90161,693.61594 C 708.41361,695.40449 703.09352,700.59692 703.09352,705.1406 C 703.09352,706.44251 704.33014,710.32906 704.74438,710.32906 C 704.7805,710.32906 705.88368,710.00485 707.19598,709.60865 z M 716.63826,688.47659 C 721.90439,686.44576 724.38739,684.48797 727.53325,679.8861 C 728.92232,677.85412 730.39689,670.7156 729.42753,670.7156 C 729.1643,670.7156 727.6648,671.45912 726.09535,672.36786 C 724.52583,673.27661 720.93666,674.7002 718.11932,675.53142 C 712.46326,677.20017 710.44441,678.66075 708.46894,682.51316 C 707.35361,684.68821 707.26154,685.51414 707.87876,687.80634 C 708.78284,691.1638 709.52319,691.22042 716.63826,688.47659 z M 716.41184,671.65742 C 720.79596,670.61104 725.43326,668.01072 728.12718,665.08822 C 731.73706,661.17195 732.28311,660.09932 732.85259,655.80677 L 733.32139,652.27248 L 730.08101,654.08355 C 728.29882,655.07964 724.35775,656.61648 721.32316,657.49873 C 715.20657,659.277 712.46736,661.34095 711.22405,665.10822 C 710.22264,668.1426 711.57169,672.96977 713.28033,672.46577 C 713.87576,672.29015 715.2849,671.92639 716.41184,671.65742 z M 720.89807,653.22884 C 727.2914,651.34168 730.58984,649.0907 733.80508,644.42046 C 735.48381,641.9821 737.27311,635.20009 736.2377,635.20009 C 736.01436,635.20009 734.38201,635.93148 732.61019,636.8254 C 730.83831,637.71933 726.93269,639.12176 723.93095,639.94191 C 717.90131,641.58937 716.42324,642.5952 714.98944,646.02673 C 713.84872,648.75694 713.78253,650.1917 714.68742,652.57188 C 715.46883,654.62707 715.97842,654.68097 720.89807,653.22884 z M 724.80518,635.2461 C 730.06045,633.56725 732.53527,632.27886 735.49269,629.68218 C 738.03621,627.44894 740.65801,621.55533 740.65801,618.07091 L 740.65801,616.01876 L 737.7553,617.71454 C 736.1588,618.64722 732.39382,620.07528 729.38866,620.88801 C 723.2994,622.53481 721.24325,624.0105 719.43913,628.02868 C 718.40139,630.34001 718.3322,631.20759 718.98999,633.66336 C 719.41761,635.25985 719.97132,636.56606 720.2204,636.56606 C 720.46949,636.56606 722.53267,635.97208 724.80518,635.2461 z M 729.74245,616.37311 C 738.53739,613.59478 742.87275,608.76481 743.8221,600.68705 L 744.27806,596.80751 L 740.93135,599.18179 C 736.95757,602.00088 734.17063,603.29354 728.88045,604.77137 C 724.76352,605.92143 723.37274,607.26636 722.24916,611.18424 C 721.63317,613.33211 722.60923,618.12531 723.66261,618.12531 C 723.95582,618.12531 726.69174,617.33682 729.74245,616.37311 z M 730.48849,599.6592 C 739.82538,596.51381 744.53699,591.34706 745.09841,583.63796 L 745.36832,579.93082 L 741.95132,582.3857 C 740.07201,583.73588 735.7202,585.79888 732.28072,586.97016 C 727.01569,588.7631 725.77387,589.47553 724.4251,591.47695 C 723.23772,593.23892 722.91009,594.47617 723.15924,596.25761 C 723.9104,601.62765 724.21945,601.77108 730.48849,599.6592 z M 721.1854,584.40502 C 719.67865,580.79881 719.9093,576.58423 721.80747,573.03736 C 722.92067,570.95734 723.25657,569.61869 722.85422,568.86578 C 722.52844,568.25601 721.93402,566.29443 721.53338,564.50673 C 720.6373,560.5082 721.4002,557.83117 724.6485,553.57571 C 726.93714,550.57745 726.94663,550.53473 725.95158,547.71451 C 724.27962,542.97571 725.00373,538.16782 727.86621,535.00167 L 729.22802,533.49541 L 727.45464,528.71108 C 725.80966,524.27309 725.7473,523.7074 726.59319,520.8966 C 727.09477,519.23001 727.97453,517.19626 728.54831,516.37714 C 729.50327,515.01367 729.44727,514.53297 727.885,510.68832 C 725.7574,505.45219 725.73698,502.77823 727.79381,498.71743 C 729.40519,495.53596 729.40601,495.52236 728.12397,492.91827 C 726.32839,489.27121 726.39525,484.5916 728.29718,480.78332 L 729.85221,477.6697 L 728.13469,475.13887 C 724.859,470.31188 724.66892,462.95951 727.72462,459.27763 C 728.40673,458.45575 728.20504,457.52782 726.65725,454.3668 C 724.17102,449.2893 723.97767,444.13683 726.12028,440.06085 C 727.01978,438.34971 727.36183,437.01603 726.96425,436.7703 C 725.74511,436.01682 723.72025,431.34125 723.24728,428.18755 C 722.91725,425.98669 723.1018,424.31262 723.87979,422.45072 C 724.95345,419.88102 724.94021,419.78184 723.29208,418.06156 C 720.93673,415.60309 719.3642,409.28453 720.28119,405.96343 C 720.66837,404.56114 721.41017,402.76515 721.92966,401.97233 C 722.78018,400.67434 722.6735,400.28742 720.85825,398.08519 C 719.74948,396.74008 718.45862,394.20491 717.98961,392.45152 C 717.24981,389.68533 717.29966,388.80556 718.36622,385.80259 L 719.59539,382.34169 L 717.91633,380.53938 C 716.99286,379.5481 715.89235,378.06574 715.47082,377.24523 C 714.53608,375.42588 714.45903,368.51938 715.35471,366.84569 C 715.85418,365.91252 715.54356,365.09075 714.01653,363.30489 C 712.92278,362.02582 712.0004,361.28666 711.96673,361.6623 C 711.93306,362.03795 711.8104,363.88202 711.69408,365.76024 C 711.47101,369.36256 710.70545,372.69137 708.5526,379.42006 C 706.30706,386.43851 704.31491,393.04251 704.17244,393.94052 C 704.09731,394.41389 703.67017,395.16688 703.22322,395.61385 C 701.98181,396.85524 702.15072,397.21796 705.89577,401.3534 C 711.86851,407.94868 711.48065,404.15415 711.56028,456.76823 C 711.6124,491.14454 711.83519,503.38196 712.40897,503.38235 C 712.83693,503.38264 713.90294,503.96255 714.77785,504.67103 L 716.36868,505.95918 L 716.52897,528.06346 C 716.61715,540.22081 716.72895,550.62876 716.77751,551.19223 C 716.82607,551.75569 717.45518,557.19956 718.17553,563.28969 C 718.89588,569.37984 719.48529,576.79457 719.48529,579.76685 C 719.48529,582.73914 719.67947,586.14201 719.91688,587.32876 C 720.32469,589.36799 720.39934,589.4138 721.27548,588.16293 C 722.06079,587.04177 722.04699,586.46702 721.1854,584.40502 z M 731.14293,582.88617 C 735.09485,581.72541 738.61109,579.87011 741.26062,577.54763 C 743.7855,575.33451 746.10766,569.77226 746.11525,565.91949 L 746.12193,562.5475 L 744.24371,564.34415 C 743.21069,565.33231 740.52141,566.94532 738.26755,567.92862 C 736.01368,568.91194 733.63591,570.00502 732.98365,570.35771 C 732.33133,570.71039 731.24722,570.99895 730.5744,570.99895 C 728.62638,570.99895 726.3794,572.9382 725.28082,575.56748 C 724.09391,578.40805 724.01981,579.82379 724.93228,582.22384 C 725.71329,584.27795 726.22041,584.33202 731.14293,582.88617 z M 731.43763,565.97259 C 736.29144,564.67602 739.93384,562.639 742.80247,559.61673 C 746.32171,555.90904 747.48792,553.21702 747.48792,548.80105 L 747.48792,544.97608 L 745.26819,547.06916 C 743.06781,549.14401 741.08229,550.20959 733.8281,553.20876 C 728.14227,555.55952 728.11468,555.57854 726.72834,558.10643 C 725.71261,559.95847 725.53783,561.15914 725.91648,563.68378 C 726.44893,567.23454 726.55255,567.2775 731.43763,565.97259 z M 735.99121,547.85943 C 739.40677,546.37768 743.15256,543.51194 745.8247,540.33635 C 747.9783,537.77689 749.70156,531.38572 749.10995,528.15174 L 748.70582,525.94247 L 745.19416,528.91291 C 743.19054,530.60772 740.06934,532.41084 737.92604,533.11165 C 733.7077,534.49097 730.89234,537.08444 729.7038,540.68581 C 729.043,542.68788 729.10427,543.63181 730.0567,546.12573 C 731.35486,549.52485 731.83138,549.66406 735.99121,547.85943 z M 737.35718,528.74689 C 741.2533,527.07144 747.42631,521.45495 748.68643,518.43905 C 749.87695,515.58973 750.512,510.10376 749.92305,507.75702 L 749.50267,506.0823 L 747.11378,508.40236 C 745.00668,510.44874 743.08577,511.57936 736.62721,514.57452 C 734.21905,515.69133 731.10297,519.87553 730.68095,522.55915 C 730.2521,525.28608 732.00212,530.01951 733.43914,530.01951 C 733.96641,530.01951 735.72955,529.44683 737.35718,528.74689 z M 738.25149,509.1663 C 742.54375,507.13574 747.27244,502.66233 748.69667,499.28493 C 749.83372,496.5887 750.56752,490.24809 749.93364,488.59632 C 749.60547,487.74099 748.93627,488.16412 746.82631,490.56114 C 744.44766,493.26348 735.44399,498.60194 733.26505,498.60194 C 732.42996,498.60194 730.41315,502.84216 730.41315,504.59793 C 730.41315,506.86089 732.4152,510.89577 733.53804,510.89577 C 734.11974,510.89577 736.24077,510.11751 738.25149,509.1663 z M 738.26755,491.73335 C 741.51571,489.7535 747.32714,483.47327 748.4816,480.69537 C 749.66003,477.85984 749.89143,471.17198 748.87678,469.27607 C 748.28203,468.16477 747.89307,468.34329 744.94959,471.07859 C 743.1527,472.74837 740.2235,474.8651 738.44021,475.78243 C 732.56608,478.80413 729.44822,486.60418 732.08012,491.69368 C 733.33198,494.11454 734.35025,494.12106 738.26755,491.73335 z M 742.56308,466.94595 C 747.84068,461.78446 749.27995,458.00637 748.17931,452.20305 C 747.79909,450.19781 747.48792,448.44191 747.48792,448.30104 C 747.48792,448.16017 745.78604,449.43111 743.70592,451.12536 C 741.62588,452.81962 738.78293,454.7882 737.38827,455.49999 C 734.2825,457.0851 733.08501,458.38687 730.85717,462.5999 C 729.2255,465.68541 729.18028,466.04352 730.05479,468.9493 C 731.50587,473.77089 732.00664,474.10502 735.38778,472.50754 C 736.97164,471.75924 740.20055,469.25652 742.56308,466.94595 z M 734.6953,452.06461 C 744.13457,447.24904 749.02246,438.53812 746.83778,430.42489 L 746.08499,427.62927 L 742.85929,430.72069 C 741.08509,432.42097 738.00295,434.74522 736.01006,435.88568 C 732.33454,437.98901 729.4961,441.43438 728.68231,444.78015 C 728.08757,447.22532 730.15232,453.52455 731.54848,453.52455 C 731.70524,453.52455 733.12134,452.86757 734.6953,452.06461 z M 734.85259,431.63017 C 738.10075,429.65031 743.91219,423.37009 745.06664,420.59219 C 746.38038,417.43095 746.39739,410.72122 745.09745,408.44716 C 744.56062,407.50805 744.11047,407.0991 744.09715,407.53838 C 744.04756,409.17496 737.26717,415.71529 734.06538,417.2149 C 728.06386,420.02586 725.78479,426.03329 728.63342,431.53286 C 729.91948,434.01574 730.91331,434.03128 734.85259,431.63017 z M 737.53176,409.09869 C 741.56639,404.63284 742.93708,400.90161 742.54675,395.44706 C 742.36692,392.93277 741.9992,390.5188 741.72963,390.08268 C 741.41538,389.57426 740.16373,390.58242 738.24131,392.89227 C 736.59231,394.87367 733.40554,397.57053 731.15966,398.88529 C 728.1909,400.62324 726.70765,402.02151 725.72586,404.00772 C 723.61883,408.27038 723.59806,410.41641 725.63167,413.75174 L 726.99198,415.98286 L 730.96323,413.97817 C 733.14744,412.87558 736.10328,410.67982 737.53176,409.09869 z M 59.403797,397.56559 L 59.639242,394.10436 L 56.945783,394.10436 C 55.46438,394.10436 54.263214,394.33487 54.276524,394.6166 C 54.331201,395.77385 58.477486,401.68878 58.930057,401.25515 C 59.061119,401.12958 59.274302,399.46928 59.403797,397.56559 z M 729.34775,394.8155 C 734.3829,391.35125 738.40824,386.31686 739.23849,382.44556 C 740.16681,378.11719 740.15267,377.35143 739.07886,373.76142 L 738.20348,370.83474 L 734.61983,375.25162 C 732.64885,377.6809 729.35554,380.7841 727.3013,382.1476 C 723.16716,384.89166 721.23341,388.21606 721.9931,391.27322 C 722.505,393.33352 724.90729,396.83632 725.80836,396.83632 C 726.13961,396.83632 727.73234,395.92695 729.34775,394.8155 z M 59.716249,389.00119 C 60.655361,388.45938 62.140235,387.69366 63.015969,387.29958 C 63.891704,386.90549 64.498934,386.35443 64.365369,386.07502 C 63.296483,383.83886 61.244859,381.07973 60.411201,380.75723 C 58.979205,380.20328 43.905937,378.26943 43.577803,378.59756 C 42.92247,379.2529 45.668683,384.21031 48.22082,386.97906 C 50.828057,389.80757 51.241138,390.00575 54.510056,389.99635 C 56.43435,389.99081 58.777137,389.54298 59.716249,389.00119 z M 729.70598,374.11318 C 731.96785,371.77294 734.31118,368.82739 734.91345,367.56753 C 736.20846,364.85849 736.39239,357.14138 735.23227,354.18518 L 734.44225,352.17199 L 733.28143,353.93069 C 731.36175,356.83913 726.43848,361.90602 723.38203,364.11883 C 719.82038,366.69748 718.85742,368.37479 718.82648,372.05414 C 718.8075,374.31828 719.25322,375.44664 720.91377,377.3379 C 723.48223,380.26321 723.9158,380.10419 729.70598,374.11318 z M 60.399239,374.26371 C 60.399239,370.36042 58.628134,368.21424 53.35226,365.72437 C 47.5975,363.0085 36.013025,359.7593 35.432685,360.69832 C 34.74486,361.81124 37.116141,368.65591 38.940766,370.82436 C 40.7424,372.96547 43.188026,373.89456 49.129892,374.6952 C 52.088154,375.0938 58.33926,376.00395 59.886996,376.26139 C 60.16873,376.30826 60.399239,375.4093 60.399239,374.26371 z M 62.7553,350.05146 C 62.989726,346.29501 63.378299,341.99217 63.618796,340.48959 C 63.859293,338.98701 64.152426,332.2254 64.270203,325.46378 C 65.283441,267.29328 65.371334,265.73309 67.959679,259.97187 C 69.214824,257.17812 69.213939,257.16301 67.774323,256.80697 C 66.978736,256.6102 65.764141,255.68816 65.075222,254.758 C 63.923128,253.20244 63.761103,250.21765 63.055514,217.55126 C 62.633592,198.01772 62.15935,178.03888 62.001644,173.15383 C 61.6493,162.23975 62.794885,157.8491 67.636582,151.55695 C 70.520459,147.80913 70.717101,147.32499 69.74875,146.35664 C 68.780398,145.38829 68.505102,145.49792 66.791724,147.53415 C 65.752628,148.76905 63.886448,150.20393 62.644657,150.72278 C 60.533108,151.60505 60.412335,151.8313 60.780201,154.21562 C 61.242071,157.20922 59.77653,161.80858 57.344973,164.99651 C 55.868537,166.93222 55.714867,167.70398 55.965237,171.92576 C 56.274873,177.14686 55.022145,180.77428 51.894741,183.71232 C 50.457427,185.06261 50.310627,185.66683 50.641345,188.87118 C 51.129642,193.60232 50.655528,195.27587 47.747687,199.08536 C 45.373873,202.19522 45.35371,202.27741 46.287162,205.03882 C 47.811535,209.54836 47.374198,214.47588 45.151484,217.83462 L 43.245743,220.71439 L 44.475224,223.91375 C 45.239726,225.90315 45.671858,228.7173 45.617848,231.35482 C 45.542303,235.04409 45.241039,235.96261 43.304628,238.40752 C 41.267124,240.98009 41.139436,241.41786 41.7994,243.56822 C 42.988739,247.44344 42.513467,253.4505 40.830912,255.80915 C 39.45098,257.74359 39.426736,257.99224 40.431378,259.90709 C 41.968383,262.83666 41.81147,269.00527 40.112599,272.439 L 38.722035,275.24958 L 40.340262,278.44598 C 42.162384,282.04513 42.3753,285.87963 40.971555,289.81519 C 40.092747,292.27904 40.134222,292.50974 41.769674,294.25463 C 44.6876,297.36784 46.178501,301.68005 45.744619,305.75154 C 45.535021,307.71838 45.174813,309.81941 44.944158,310.42049 C 44.713502,311.02156 44.949641,312.03976 45.468912,312.68316 C 48.724062,316.71636 49.821321,322.48216 48.149159,326.76714 C 47.466916,328.51542 47.572214,328.96563 49.02772,330.52359 C 52.64693,334.39755 54.087173,339.92282 52.744923,344.78405 C 52.156323,346.91578 52.269536,347.32924 53.793253,348.61266 C 56.471296,350.86836 57.714738,354.07606 57.75117,358.82289 C 57.781175,362.73235 57.950015,363.22536 59.603954,364.23299 L 61.423725,365.34166 L 61.876399,361.11151 C 62.125369,358.78493 62.520874,353.8079 62.7553,350.05146 z M 726.13524,355.65271 C 728.47796,353.21108 730.73381,350.33726 731.14832,349.26644 C 732.17636,346.61068 732.17813,340.35312 731.15173,337.24309 C 730.21133,334.39372 729.36094,333.98554 728.70048,336.06655 C 728.09822,337.96409 721.26121,345.24725 718.45282,346.98292 C 714.35297,349.51679 713.44049,354.98415 716.40378,359.26022 C 718.19656,361.8472 718.34852,361.92026 720.07485,361.02547 C 721.0654,360.51208 723.79251,358.09434 726.13524,355.65271 z M 53.569332,358.21343 C 53.569332,354.609 52.000604,352.21053 47.834477,349.44521 C 44.457394,347.20363 35.985147,343.20918 31.780676,341.87626 C 30.149766,341.35921 30.142601,341.379 30.545903,345.28662 C 30.812873,347.8733 31.60721,350.26814 32.869323,352.29148 C 34.775404,355.34719 34.836383,355.37962 42.879935,357.61424 C 47.331001,358.85082 51.147211,360.037 51.360403,360.25019 C 52.520814,361.4106 53.569332,360.44381 53.569332,358.21343 z M 719.16867,340.70612 C 721.65154,338.38353 724.29294,335.28764 725.03842,333.82638 C 726.63116,330.70429 726.91938,324.58302 725.65414,320.74926 L 724.80327,318.17104 L 723.4168,320.45144 C 721.26456,323.9913 716.31417,329.54192 714.39169,330.5708 C 712.7127,331.46936 712.65539,331.7217 712.65539,338.21453 C 712.65539,343.65303 712.84533,344.92903 713.65488,344.92903 C 714.20462,344.92903 716.68578,343.02872 719.16867,340.70612 z M 48.785844,341.00183 C 48.781168,335.06091 46.888991,333.19641 34.003057,326.43526 C 27.971237,323.27042 27.309104,323.06264 26.894563,324.20457 C 26.643146,324.89714 26.493271,326.07848 26.561507,326.82977 C 26.800899,329.46551 28.579524,335.43256 29.289192,335.9808 C 29.68352,336.28544 32.311245,337.41408 35.128583,338.48891 C 37.945919,339.56374 41.787742,341.2618 43.665966,342.26237 C 48.509975,344.84289 48.788812,344.77424 48.785844,341.00183 z M 44.275885,325.40793 C 45.224215,322.93662 44.599649,319.25128 42.789539,316.63755 C 40.973337,314.01502 35.335279,310.13187 27.725403,306.2623 C 23.315037,304.01965 22.604956,304.5703 23.085653,309.8603 C 23.6143,315.67799 24.434991,316.55708 34.148643,321.71051 C 39.007526,324.28831 43.180602,326.41787 43.422146,326.44285 C 43.66369,326.46783 44.047872,326.00212 44.275885,325.40793 z M 720.53328,315.95123 C 721.81389,311.63886 721.79347,309.73462 720.42346,305.71382 L 719.31264,302.45377 L 717.35553,306.03272 C 716.27907,308.00115 714.63531,310.61202 713.70276,311.83466 C 712.28193,313.69749 712.04664,314.64969 712.25072,317.71176 C 712.38458,319.7215 712.53047,322.43 712.5748,323.73064 L 712.65539,326.09543 L 716.09384,322.70869 C 718.54059,320.29872 719.82099,318.34978 720.53328,315.95123 z M 41.517506,305.61027 C 41.810154,303.47518 41.629504,301.87958 40.945336,300.55655 C 39.519254,297.79881 33.908898,293.09254 27.509692,289.28603 C 23.121588,286.67579 21.881497,286.20225 21.404847,286.95486 C 20.333707,288.64611 20.402691,292.04609 21.586777,295.92145 C 22.286961,298.21306 23.034337,298.83547 28.758229,301.89382 C 32.272624,303.77162 36.296206,306.05998 37.699525,306.97907 C 39.102843,307.89816 40.439746,308.66824 40.67042,308.69034 C 40.901096,308.71244 41.282284,307.32641 41.517506,305.61027 z M 713.37889,304.46183 C 715.42663,300.87686 715.62641,293.97418 713.78417,290.46052 C 711.74209,286.56581 711.37451,287.16052 709.90055,296.7443 C 709.34241,300.3734 709.37472,302.18296 710.03756,304.42794 C 710.51442,306.04307 711.08827,307.36454 711.31277,307.36454 C 711.5372,307.36454 712.46696,306.05832 713.37889,304.46183 z M 37.508217,286.92413 C 37.747884,285.83294 37.591156,283.6082 37.159934,281.98029 C 36.301408,278.73923 32.065684,274.18891 24.340356,268.20859 L 20.078822,264.90965 L 19.066321,267.33291 C 17.851591,270.24016 17.80098,274.86915 18.954397,277.57003 C 19.55844,278.9845 22.076724,280.93085 27.94799,284.52105 C 32.433035,287.26361 36.320832,289.37265 36.587539,289.20782 C 36.854246,289.04299 37.268551,288.01533 37.508217,286.92413 z M 37.283777,267.79128 C 37.488267,264.42676 37.074608,262.60664 35.485307,259.87795 C 33.863736,257.09385 22.710286,245.89537 21.558949,245.89537 C 20.597519,245.89537 18.72854,251.11908 18.804888,253.59284 C 18.940022,257.97146 19.760711,259.06874 27.632641,265.39586 C 34.492133,270.90921 35.576605,271.56072 36.323815,270.6171 C 36.793372,270.02412 37.225354,268.75251 37.283777,267.79128 z M 38.105941,249.11939 C 38.073537,246.8776 37.498721,244.44873 36.569543,242.62739 C 35.056079,239.66076 25.238311,228.13761 24.224189,228.13761 C 23.443086,228.13761 21.347205,233.46306 21.004396,236.31883 C 20.732431,238.58444 21.092945,239.04858 28.777632,246.32647 C 33.814951,251.09714 37.083804,253.72269 37.496888,253.32982 C 37.860344,252.98413 38.134418,251.08945 38.105941,249.11939 z M 39.854581,236.0582 C 41.704649,233.829 41.919018,230.88567 40.553337,226.46411 C 39.457527,222.91629 38.236122,221.03167 33.720109,215.92048 C 30.695703,212.49749 27.937525,209.69686 27.590823,209.69686 C 26.412985,209.69686 24.074578,215.34123 24.029971,218.29193 C 23.988402,221.04164 24.327353,221.59315 29.321649,226.90211 C 32.256498,230.02188 35.455206,233.57388 36.42989,234.79543 C 38.425189,237.29612 38.733002,237.40962 39.854581,236.0582 z M 42.224943,214.18695 C 43.350533,212.09685 43.392867,211.46302 42.621599,208.24801 C 41.805804,204.84738 37.07583,196.61831 34.397546,193.94004 C 33.722916,193.2654 32.655757,191.92715 32.026083,190.96615 C 30.570204,188.7442 29.895684,189.19777 27.880928,193.75349 C 25.052537,200.14898 25.304241,200.8724 33.250357,209.18569 C 37.100717,213.21397 40.411631,216.51365 40.60794,216.51829 C 40.804251,216.52296 41.531902,215.47385 42.224943,214.18695 z M 45.115798,195.34986 C 46.725369,192.91763 46.876985,192.19235 46.480702,188.82059 C 46.112745,185.68984 45.17344,183.66266 41.101536,177.21143 C 38.388187,172.9126 35.890171,169.48804 35.550391,169.60131 C 34.51194,169.94745 31.540519,176.17396 30.998029,179.14061 C 30.496053,181.88569 30.602269,182.09023 36.643629,190.01218 C 40.030089,194.45279 42.914288,198.08602 43.05296,198.08602 C 43.191631,198.08602 44.119908,196.85474 45.115798,195.34986 z M 51.755609,174.52536 C 52.387537,169.91494 51.10304,166.82915 44.297066,156.60741 C 41.672232,152.66523 41.387019,152.43886 40.424609,153.53395 C 39.029494,155.1214 36.494563,160.22633 36.494563,161.44842 C 36.494563,161.98814 38.442676,165.30436 40.823703,168.81779 C 43.204731,172.33121 45.887742,176.53692 46.785951,178.1638 L 48.419058,181.12177 L 49.887721,179.27989 C 50.695487,178.26686 51.536035,176.12732 51.755609,174.52536 z M 55.340353,160.00928 C 56.024372,158.60062 56.544891,156.21869 56.497062,154.71611 C 56.329784,149.46107 51.560834,135.25088 49.96452,135.25088 C 48.590451,135.25088 44.065093,140.7386 43.373413,143.24366 C 42.721405,145.60504 42.87062,146.10536 45.463414,150.25136 C 51.667855,160.17254 53.247157,162.54278 53.662259,162.55632 C 53.901191,162.56412 54.656333,161.41796 55.340353,160.00928 z M 64.978621,142.18077 C 66.246563,139.39589 65.99511,134.21538 64.222639,126.60573 C 63.333866,122.79001 62.399165,119.33229 62.145524,118.92189 C 61.420594,117.74893 55.779333,122.87611 54.19587,126.14711 L 52.803965,129.02241 L 55.5126,135.50493 C 57.002348,139.07031 58.440082,143.00733 58.707564,144.25384 C 58.975045,145.50034 59.334465,146.75866 59.506274,147.05009 C 59.979293,147.85244 64.04239,144.23708 64.978621,142.18077 z M 73.612787,130.77855 C 75.499888,128.94583 76.140859,127.73901 76.242743,125.82687 C 76.467801,121.60302 76.094582,117.74984 74.990357,112.897 C 74.411636,110.35366 73.776787,107.42754 73.579581,106.39451 C 73.382375,105.36149 72.923451,104.51629 72.55975,104.51629 C 71.469758,104.51629 65.946803,109.32373 65.530721,110.63468 C 65.318275,111.30405 66.228202,116.46503 67.552782,122.10354 C 68.877363,127.74205 69.96111,132.54585 69.96111,132.77863 C 69.96111,133.76702 71.278765,133.04533 73.612787,130.77855 z M 84.425009,120.39582 C 85.581422,119.71806 87.071051,117.87351 87.865698,116.13537 C 89.140541,113.34687 89.229549,112.21821 88.851602,103.63332 C 88.623107,98.443059 88.257325,93.907127 88.038754,93.55347 C 87.524927,92.722079 84.324937,94.378024 81.281376,97.050303 C 77.539546,100.33567 77.066082,102.80105 78.816503,109.88516 C 79.627899,113.16896 80.399473,116.91565 80.531109,118.21114 C 80.662745,119.50662 80.797113,120.79708 80.829705,121.07881 C 80.92688,121.91885 82.257777,121.66601 84.425009,120.39582 z M 98.382055,106.57277 C 99.836353,105.07431 101.26314,102.99972 101.5527,101.96258 C 102.40182,98.921189 102.97548,87.946441 102.46372,84.533764 C 101.99312,81.395607 101.98856,81.391153 99.965439,82.096416 C 98.850688,82.485017 96.555047,84.077151 94.864009,85.634486 L 91.789398,88.466011 L 92.46286,94.159177 C 92.83326,97.290413 93.189952,101.97743 93.255499,104.57478 C 93.400361,110.315 94.379688,110.69668 98.382055,106.57277 z M 67.882308,102.16177 C 68.333537,101.61806 70.061572,100.65427 71.722384,100.02001 C 73.383197,99.385735 74.742044,98.624778 74.742044,98.328995 C 74.742044,96.486676 82.471143,90.141587 86.616023,88.581212 C 87.734256,88.160246 87.847763,87.620986 87.478831,84.481987 C 86.789078,78.613259 85.810265,76.613046 82.902117,75.129418 C 79.960732,73.628835 78.231621,71.519437 74.177397,64.485852 C 71.011843,58.993997 68.839931,57.23916 65.086571,57.140743 C 60.086381,57.009633 59.393551,60.465945 62.435368,70.366754 C 64.051572,75.627334 64.563914,78.987716 65.142808,88.124517 C 65.535513,94.322655 65.858245,100.23906 65.859991,101.27208 C 65.863492,103.34401 66.623603,103.67841 67.882308,102.16177 z M 119.79281,100.28956 C 121.51437,98.44168 121.81112,93.391209 120.16093,94.024438 C 119.59745,94.240668 119.13643,94.774369 119.13643,95.210439 C 119.13643,95.64652 118.36807,97.134066 117.42896,98.51609 C 116.48985,99.898123 115.72148,101.19885 115.72148,101.40659 C 115.72148,102.39489 118.55593,101.61721 119.79281,100.28956 z M 110.21595,99.0736 C 115.09057,96.586751 117.08746,90.788206 117.08746,79.120195 C 117.08746,71.824219 116.56755,71.581364 110.50363,76.044907 L 106.50111,78.99109 L 106.50111,89.703414 C 106.50111,95.595199 106.74387,100.41633 107.04056,100.41705 C 107.33726,100.41776 108.76618,99.813214 110.21595,99.0736 z M 126.31018,87.347856 C 129.99763,84.110221 130.23609,83.330649 129.36898,77.347835 C 128.75948,73.142438 128.7981,71.140402 129.55966,67.464043 C 130.08491,64.92844 130.31982,62.853855 130.08169,62.853855 C 129.29617,62.853855 123.59836,66.719573 122.43222,68.043685 C 121.49791,69.104581 121.24788,71.186364 121.06625,79.417345 C 120.84528,89.430508 120.85321,89.492409 122.35687,89.491456 C 123.18901,89.490928 124.96799,88.52631 126.31018,87.347856 z M 94.893638,78.556134 C 95.409419,77.558728 97.399736,72.506418 99.31657,67.328785 C 103.26671,56.658916 104.58846,53.888696 109.99121,44.956019 C 114.43034,37.616561 120.45547,30.455772 123.9084,28.415645 L 126.30784,26.997963 L 122.55139,26.486289 C 119.55432,26.078052 115.18101,26.287345 112.30653,26.976581 C 112.11871,27.021615 110.73565,27.301265 109.23307,27.598024 C 101.4959,29.12611 81.38238,38.815317 75.196283,43.994438 C 74.248221,44.788173 72.375119,46.295896 71.033832,47.344934 C 69.28672,48.711372 68.595128,49.787165 68.595128,51.138414 C 68.595128,55.569564 76.690598,64.297467 82.857593,66.515087 C 85.5794,67.493835 86.432025,68.223587 87.600261,70.574285 C 88.383624,72.150544 89.376992,74.823268 89.807747,76.51367 C 90.999614,81.19092 91.698716,82.242864 92.933967,81.217701 C 93.496,80.751253 94.377858,79.553546 94.893638,78.556134 z M 141.67513,77.92781 C 142.61424,77.259325 143.9286,75.780136 144.59593,74.640727 C 145.66676,72.812375 145.72051,71.997158 145.05369,67.699312 C 144.36879,63.285065 144.54658,58.333257 145.50351,55.17021 C 146.00096,53.526008 144.85878,53.672702 141.71599,55.656659 C 135.15105,59.800925 131.62758,69.72607 133.73726,78.131689 C 134.19161,79.941984 134.36323,80.016661 137.09188,79.591418 C 138.67356,79.344926 140.73601,78.596301 141.67513,77.92781 z M 114.6372,68.790573 C 115.65179,68.711558 117.26037,67.571442 118.67697,65.927314 C 121.42369,62.739431 127.39212,58.984909 130.58911,58.43381 C 131.99421,58.191599 133.68884,57.088867 135.16227,55.457956 C 137.55249,52.81227 143.97748,49.194042 146.28529,49.194042 C 146.98994,49.194042 148.46918,48.241315 149.57249,47.07687 C 152.98161,43.478829 157.09116,41.050593 161.51986,40.017444 C 164.27776,39.374071 166.45434,38.366881 167.73193,37.142878 C 170.10343,34.870831 169.81538,34.659128 162.84784,33.553338 C 160.0305,33.10621 154.09277,31.832265 149.65287,30.722348 C 139.49876,28.183956 135.57903,28.131955 130.88053,30.473309 C 125.27621,33.266065 121.80352,37.853487 115.41636,50.901518 C 108.9566,64.09788 104.11065,74.338604 104.11065,74.793357 C 104.11065,74.963077 106.09979,73.711424 108.53098,72.011905 C 110.96216,70.312385 113.70996,68.862787 114.6372,68.790573 z M 155.99358,69.138715 C 158.94687,67.687818 161.66595,63.826837 161.0659,61.936232 C 160.36344,59.723003 160.74311,51.755647 161.73286,47.940092 C 162.78631,43.878926 162.48665,43.691194 158.39829,45.851021 C 152.20054,49.125208 149.15713,54.173658 149.04581,61.365065 C 149.00697,63.874302 149.20118,66.926188 149.47738,68.147034 C 149.8931,69.984602 150.29358,70.361106 151.80351,70.333949 C 152.80669,70.315906 154.69222,69.77805 155.99358,69.138715 z M 170.50137,60.777287 C 172.04384,60.348892 173.85133,59.083219 175.12895,57.536889 C 177.14986,55.090924 177.21266,54.816841 176.87112,49.932994 C 176.67626,47.146437 176.79129,43.765632 177.12674,42.420096 C 178.60118,36.505953 178.62003,36.217217 177.53158,36.217217 C 176.1802,36.217217 171.82081,38.997331 169.88186,41.095689 C 166.40072,44.863001 163.90522,54.712098 165.16253,59.72163 C 165.65178,61.670962 166.60499,61.859441 170.50137,60.777287 z M 402.2361,58.072921 C 403.36304,57.786165 403.75102,57.515182 403.09828,57.470738 C 402.44553,57.426294 400.46109,55.853201 398.68839,53.974976 C 395.93011,51.052502 395.09449,50.560022 392.89401,50.560022 C 389.49497,50.560022 383.35044,47.78984 381.92541,45.614971 C 380.89474,44.041972 380.3391,43.874357 375.93285,43.807286 C 370.9311,43.73115 369.15918,43.169141 366.61008,40.850341 C 365.25632,39.618891 364.82293,39.576769 361.39633,40.34361 C 357.04736,41.316865 354.11119,40.902634 349.76599,38.702816 C 348.04623,37.832162 346.30258,37.327821 345.89122,37.582059 C 345.47985,37.836297 343.30133,38.110779 341.05006,38.192019 C 337.61761,38.315883 336.33718,38.004111 333.11834,36.260713 C 330.84911,35.031641 328.97533,34.41484 328.53498,34.751981 C 327.02351,35.909195 321.24872,37.060359 319.10543,36.631701 C 317.88971,36.388558 315.54086,35.534075 313.88574,34.732849 C 311.32108,33.491315 310.55464,33.392441 308.69843,34.063655 C 305.67008,35.158722 301.2355,35.046528 298.25053,33.799325 C 295.83045,32.788154 295.60245,32.818446 292.36325,34.581434 C 289.65245,36.056831 288.19718,36.391557 284.92083,36.293247 C 282.68084,36.226034 280.01268,35.739019 278.99159,35.210992 C 277.31063,34.34173 276.8175,34.406481 273.77697,35.895712 C 269.88472,37.802117 265.24763,38.06384 261.69117,36.577852 C 259.55006,35.683239 259.18849,35.688842 258.40846,36.628717 C 257.92634,37.209632 256.12862,38.416092 254.41352,39.309739 C 251.3701,40.895498 251.34441,40.9359 253.34413,40.99068 C 257.93003,41.116309 263.64298,43.05713 267.5618,45.820753 C 271.14541,48.347985 271.83149,48.591136 274.06687,48.126181 C 278.42303,47.220107 295.99562,47.551969 306.6174,48.740905 C 320.69309,50.316448 321.54416,50.413934 328.13161,51.20524 C 331.32459,51.588791 338.54722,52.379015 344.18189,52.961292 C 349.81656,53.54357 358.42225,54.463146 363.30563,55.004796 C 376.35788,56.452509 385.10966,57.311201 391.64975,57.785812 C 394.84273,58.017524 397.58323,58.330589 397.73975,58.48151 C 398.12347,58.851509 399.76114,58.702691 402.2361,58.072921 z M 444.9421,53.905117 C 440.0827,49.823952 433.11326,49.457208 426.12151,52.914745 C 417.32842,57.263071 416.89172,58.426743 424.26256,57.868243 C 427.1738,57.647653 430.78512,57.687732 432.2877,57.957307 C 434.1471,58.2909 436.94219,58.005889 441.03901,57.06495 L 447.05836,55.682453 L 444.9421,53.905117 z M 416.23741,53.632143 C 418.576,51.554335 427.26424,47.145385 429.82804,46.735416 C 432.41483,46.321773 432.52929,46.208865 431.64367,44.944469 C 429.60027,42.027099 421.36673,38.040486 418.45294,38.557622 C 417.79787,38.673883 416.03251,38.991377 414.52993,39.263164 C 411.12597,39.878874 404.20213,43.697098 401.63986,46.371534 L 399.71124,48.38458 L 401.2652,50.486426 C 402.6122,52.30834 403.96154,53.043586 409.40751,54.923113 C 410.93729,55.451076 415.06922,54.670071 416.23741,53.632143 z M 188.1185,52.055103 C 191.61399,50.713546 192.52524,48.8377 192.96146,42.085826 C 193.33926,36.23792 194.87216,30.343875 196.60275,28.084945 C 197.21886,27.280724 196.90504,27.205313 194.6778,27.622382 C 186.09443,29.229693 180.57335,37.943525 181.22638,48.852546 C 181.33881,50.73077 181.56821,52.494111 181.73615,52.771082 C 182.10261,53.375452 185.74207,52.967172 188.1185,52.055103 z M 398.47966,43.047125 C 400.64772,41.1689 402.61647,39.632171 402.85466,39.632171 C 403.09285,39.632171 404.48919,38.873726 405.95763,37.946739 C 407.42608,37.019751 410.08223,35.895009 411.86019,35.447313 L 415.09286,34.633319 L 413.53488,33.371745 C 412.678,32.67788 410.24624,31.606302 408.13099,30.990462 C 401.23241,28.981987 393.55565,31.708623 386.96535,38.508091 C 384.06906,41.496303 384.35713,42.983086 388.20877,44.925349 C 392.65099,47.165431 394.01343,46.916283 398.47966,43.047125 z M 202.9102,45.381963 C 206.85893,44.592217 207.9093,43.134815 208.29141,37.915403 C 208.63431,33.231865 210.63478,26.446725 212.56773,23.411141 C 213.47303,21.989408 213.43563,21.874412 212.06781,21.874412 C 208.99387,21.874412 203.32357,25.764805 200.62848,29.722936 C 198.84393,32.343827 196.99738,39.082951 196.99738,42.974963 C 196.99738,45.608236 197.11702,45.779088 198.96097,45.779088 C 200.04096,45.779088 201.81811,45.600381 202.9102,45.381963 z M 220.67456,40.271821 C 221.55097,39.938608 222.29156,39.427864 222.3203,39.136832 C 222.34904,38.845801 222.46856,38.146666 222.58589,37.583199 C 222.70323,37.019732 223.11978,34.86831 223.51155,32.802264 C 224.42931,27.962364 226.60458,23.111082 229.1641,20.195947 C 231.36752,17.686396 230.95479,16.785081 227.93413,17.509927 C 219.31293,19.578695 213.9958,26.394477 212.74812,36.976128 C 212.3603,40.265235 212.46313,40.993998 213.34675,41.218536 C 214.70312,41.563201 218.60328,41.05932 220.67456,40.271821 z M 236.35706,37.880144 C 237.36207,37.256129 238.1725,35.501358 238.98283,32.194709 C 240.3254,26.716256 243.27883,20.194102 245.43456,17.947215 L 246.90893,16.410487 L 244.32111,16.416895 C 241.24417,16.424516 235.85828,19.342472 232.79341,22.662349 C 230.20471,25.466436 227.97141,30.668939 227.35202,35.338176 C 226.89156,38.809216 226.90591,38.845371 228.84627,39.107922 C 231.52085,39.469818 234.61012,38.964818 236.35706,37.880144 z M 384.55381,34.990158 C 386.84919,32.734935 390.30079,29.991055 392.22403,28.892646 L 395.72084,26.895537 L 393.38004,25.779288 C 387.08781,22.778737 379.92182,23.89344 373.35171,28.894785 C 370.10752,31.364348 366.52251,35.348991 367.15832,35.778587 C 367.29321,35.86973 368.46963,36.810759 369.77258,37.869761 C 371.93932,39.63082 372.49332,39.765139 376.26099,39.442891 C 380.20326,39.105712 380.55987,38.914234 384.55381,34.990158 z M 251.46284,35.849674 C 255.18718,34.293549 256.25252,33.042091 257.47184,28.790938 C 258.60162,24.852007 263.10215,16.410487 264.07239,16.410487 C 264.36998,16.410487 264.61347,16.08222 264.61347,15.681006 C 264.61347,15.037365 261.52395,15.135571 257.07962,15.920484 C 255.13233,16.264393 249.74107,19.787446 248.00524,21.850363 C 246.03118,24.196394 243.51882,30.461215 243.26864,33.661513 C 243.11967,35.567133 243.34611,35.883007 245.14824,36.283378 C 248.35709,36.99628 248.78974,36.966564 251.46284,35.849674 z M 361.73818,34.338993 C 366.57367,28.765642 371.64405,24.15374 374.46409,22.763773 C 377.31747,21.357382 377.37125,21.273895 375.92288,20.49875 C 375.09578,20.056106 372.37613,19.681152 369.87922,19.665521 C 366.3182,19.643229 364.60471,20.013156 361.93204,21.381249 C 356.92262,23.945471 349.00364,32.774789 350.43208,34.203218 C 351.31044,35.081577 356.20414,36.79536 357.9959,36.852083 C 358.94044,36.881985 360.35748,35.930391 361.73818,34.338993 z M 343.46732,33.744359 C 344.07488,33.511221 345.92251,31.436636 347.57319,29.134171 C 351.05948,24.271292 355.62179,19.73034 358.47446,18.283946 L 360.47318,17.270522 L 358.86464,16.409658 C 357.77952,15.828921 355.63953,15.671055 352.28815,15.924518 C 348.24989,16.229931 346.77093,16.681798 344.38507,18.339133 C 340.5996,20.9687 337.68374,24.15229 335.42697,28.119737 C 333.98978,30.646338 333.80114,31.43966 334.49967,32.019389 C 336.67179,33.822088 341.0634,34.666833 343.46732,33.744359 z M 272.80448,31.53304 C 273.74449,30.836634 275.27579,28.314645 276.22334,25.902294 C 278.38488,20.399344 279.77675,17.846587 282.15993,15.014327 L 284.04721,12.771425 L 279.05041,13.190339 C 273.79614,13.630838 272.0858,14.507163 267.46839,19.124562 C 265.36682,21.226144 262.28651,26.920982 261.53402,30.09597 C 261.19307,31.534569 261.44886,31.963563 263.03912,32.620226 C 265.58364,33.670934 270.68542,33.102949 272.80448,31.53304 z M 326.9728,30.637478 C 328.63295,29.797002 330.23514,28.170719 331.41224,26.131284 C 332.42523,24.376178 334.90859,21.169736 336.93082,19.005857 C 340.18829,15.520202 340.46091,15.012496 339.32129,14.553861 C 336.64749,13.477803 329.76287,14.086008 326.68008,15.670615 C 322.8191,17.65523 317.98225,22.388208 315.8774,26.241307 C 314.4804,28.798632 314.35903,29.452971 315.11311,30.361587 C 317.25703,32.944845 322.18856,33.059568 326.9728,30.637478 z M 289.44884,31.354741 C 290.511,30.870794 291.55814,29.429503 292.30207,27.427544 C 293.97749,22.918884 295.85034,19.985077 299.60364,15.989655 L 302.88619,12.495365 L 300.61269,12.126427 C 292.1616,10.755003 283.67866,17.137172 280.137,27.531398 C 279.12218,30.509744 279.13517,30.62608 280.55985,31.315518 C 282.54112,32.274292 287.38375,32.29566 289.44884,31.354741 z M 307.45702,30.032403 C 309.02874,29.484498 310.05952,28.258352 311.75267,24.922569 C 313.09736,22.273313 315.54657,19.039736 317.93161,16.764804 C 321.78399,13.09024 321.83987,12.985208 320.16554,12.56498 C 317.61675,11.925275 311.52089,12.720484 309.00661,14.020669 C 305.5039,15.831995 300.99352,20.366363 298.69046,24.391691 C 297.52279,26.432567 296.67724,28.197258 296.81148,28.313228 C 299.37421,30.527328 303.9278,31.262697 307.45702,30.032403 z "
     id="path1346" />
</svg>
