<?xml version="1.0" standalone="no"?>
<!DOCTYPE svg PUBLIC "-//W3C//DTD SVG 20010904//EN"
 "http://www.w3.org/TR/2001/REC-SVG-20010904/DTD/svg10.dtd">
<svg version="1.0" xmlns="http://www.w3.org/2000/svg"
 width="486.000000pt" height="597.000000pt" viewBox="0 0 486.000000 597.000000"
 preserveAspectRatio="xMidYMid meet">
<metadata>
Created by potrace 1.11, written by Peter Selinger 2001-2013
</metadata>
<g transform="translate(0.000000,597.000000) scale(0.100000,-0.100000)"
fill="#000000" stroke="none">
<path d="M400 5851 c-8 -6 -18 -7 -22 -5 -4 3 -8 0 -8 -6 0 -6 -4 -8 -10 -5
-5 3 -10 1 -10 -6 0 -7 -3 -10 -6 -6 -4 3 -15 -4 -26 -16 -11 -12 -17 -16 -13
-9 10 20 1 14 -31 -20 -16 -17 -22 -28 -14 -24 8 4 5 -1 -7 -11 -56 -46 -53
126 -53 -2752 l0 -2646 24 -50 c29 -63 97 -126 162 -151 48 -18 106 -19 2054
-19 l2005 0 56 26 c72 34 123 88 149 156 20 54 20 62 18 2706 l-3 2652 -22 41
c-28 53 -74 99 -127 127 l-41 22 -2030 2 c-1230 2 -2036 -1 -2045 -6z m3800
-2871 l0 -2340 -1745 0 -1745 0 0 2340 0 2340 1745 0 1745 0 0 -2340z"/>
<path d="M370 89 c0 -5 -34 -9 -75 -9 -41 0 -75 -4 -75 -9 0 -20 472 -26 2210
-26 1738 0 2210 6 2210 26 0 5 -32 9 -71 9 -38 0 -68 4 -65 9 3 4 -13 5 -37 0
-57 -11 -4012 -11 -4059 0 -22 5 -38 5 -38 0z"/>
</g>
</svg>
